<svg xmlns="http://www.w3.org/2000/svg" width="512" height="512" viewBox="0 0 512 512" version="1.1">
	<path d="M 276.891 61.823 C 263.096 69.046, 188.236 117.019, 158.693 137.569 C 154.399 140.556, 149.899 142.986, 148.693 142.969 C 147.487 142.952, 140.875 138.665, 134 133.443 C 127.125 128.221, 120.535 123.698, 119.355 123.392 C 117.749 122.976, 111.903 126.381, 96.071 136.953 C 76.540 149.995, 47.135 170.663, 44.284 173.353 C 43.368 174.217, 49.534 174.425, 69.284 174.196 L 95.500 173.892 104.500 169.756 C 112.738 165.969, 114.470 165.554, 124.955 164.848 C 131.256 164.424, 136.509 164.175, 136.628 164.295 C 136.853 164.520, 108.589 180.805, 73 200.956 C 49.679 214.161, 36.084 222.270, 36.042 223 C 36.026 223.275, 42.398 226.299, 50.201 229.720 L 64.390 235.939 77.029 229.294 L 89.667 222.649 105.443 231.484 L 121.220 240.319 132.101 234.950 L 142.982 229.581 149.441 232.894 L 155.900 236.207 158.844 234.111 C 160.463 232.958, 165.546 230.406, 170.139 228.440 C 174.733 226.474, 179.291 224.142, 180.269 223.257 C 181.326 222.300, 182.376 222.023, 182.857 222.574 C 183.302 223.083, 186.030 230.700, 188.919 239.500 C 191.808 248.300, 194.394 256.056, 194.665 256.736 C 194.936 257.415, 194 258.498, 192.586 259.143 C 190.589 260.053, 190.264 260.613, 191.130 261.657 C 191.743 262.396, 193.115 263, 194.179 263 C 196.288 263, 199.727 269.543, 200.669 275.347 C 201.157 278.356, 200.701 278.990, 194.057 284.539 C 190.131 287.818, 186.232 290.651, 185.391 290.837 C 184.550 291.022, 179.731 288.455, 174.681 285.134 C 156.697 273.303, 145.222 269.703, 125.500 269.703 C 109.599 269.703, 101.077 271.735, 86.500 279.004 C 68.347 288.056, 54.583 301.810, 45.975 319.500 C 38.655 334.545, 37.538 339.694, 37.626 358 C 37.692 371.850, 37.988 374.454, 40.407 382.463 C 45.435 399.107, 54.808 413.503, 67.909 424.701 C 77.867 433.213, 86.371 438.158, 98 442.199 C 107.307 445.433, 107.845 445.500, 124.500 445.494 C 141.201 445.489, 141.672 445.429, 151.244 442.120 C 169.864 435.683, 185.557 423.628, 196.926 407.029 L 203 398.160 210.250 396.495 C 214.238 395.579, 221.459 394.451, 226.297 393.988 C 237.181 392.947, 241.560 390.830, 245.500 384.703 L 248.500 380.037 260.719 380.201 C 271.320 380.344, 273.208 380.122, 274.969 378.528 C 279.916 374.051, 275.912 369, 267.417 369 C 264.591 369, 260.153 368.709, 257.555 368.352 C 253.202 367.756, 252.665 367.364, 250.723 363.367 C 248.700 359.202, 248.683 358.888, 250.310 355.477 C 252.583 350.710, 280.048 309.407, 294.181 289.500 C 300.429 280.700, 308.682 268.838, 312.521 263.139 C 316.359 257.441, 321.041 251.424, 322.924 249.767 C 326.189 246.895, 326.411 246.841, 327.703 248.609 C 328.448 249.628, 329.549 252.100, 330.149 254.102 C 330.921 256.678, 332.149 258.145, 334.353 259.121 C 336.947 260.270, 338.250 262.253, 342.156 271 C 344.735 276.775, 346.879 281.950, 346.921 282.500 C 346.962 283.050, 344.881 284.836, 342.296 286.470 C 325.546 297.053, 313.114 312.979, 306.763 331.992 C 303.715 341.114, 303.585 342.169, 303.554 358 C 303.517 376.368, 304.544 381.793, 310.497 394.692 C 321.995 419.607, 343.056 437.222, 369.500 444.043 C 379.544 446.634, 397.411 446.876, 407.414 444.556 C 437.863 437.494, 461.732 415.631, 472.327 385.096 C 476.244 373.805, 477.185 355.955, 474.548 342.942 C 468.689 314.027, 450.221 290.878, 422.737 277.998 C 405.298 269.826, 389.540 268.098, 372.597 272.500 C 367.305 273.875, 362.568 275, 362.070 275 C 359.911 275, 357.060 250.823, 358.386 243.755 C 358.985 240.563, 359.619 239.988, 364.775 237.957 C 367.924 236.718, 372.847 234.396, 375.716 232.797 L 380.933 229.892 391.826 235.991 L 402.718 242.091 417.314 234.546 C 425.341 230.396, 432.717 227.001, 433.705 227.003 C 434.692 227.004, 437.975 228.487, 441 230.298 C 452.058 236.919, 451.098 236.937, 465.361 229.832 C 472.313 226.370, 478 223.176, 478 222.735 C 478 222.293, 454.038 206.048, 424.750 186.633 C 363.275 145.882, 312.002 109.684, 298.500 97.503 C 296.300 95.519, 295.400 94.334, 296.500 94.870 C 302.049 97.576, 367.297 144.114, 381.428 155.445 C 388.119 160.809, 388.565 161, 394.428 161.010 C 404.350 161.025, 443.722 162.960, 454.473 163.960 C 459.958 164.470, 464.580 164.754, 464.744 164.590 C 465.810 163.523, 403.727 120.110, 394.500 115.470 C 384.623 110.503, 382.286 110.355, 370.021 113.918 L 359.541 116.962 356.021 114.624 C 354.084 113.338, 348.900 109.222, 344.500 105.477 C 326.593 90.234, 294.772 65.270, 287.948 61.109 C 283.558 58.433, 283.337 58.447, 276.891 61.823 M 274.862 75.785 C 270.766 78.378, 265.184 82.132, 262.458 84.127 C 259.731 86.121, 252.550 90.577, 246.500 94.028 C 240.450 97.479, 230.325 103.722, 224 107.901 C 213.453 114.870, 212.749 115.524, 215.507 115.795 C 217.616 116.002, 223.234 113.817, 234.312 108.480 C 243.001 104.295, 250.527 101.012, 251.038 101.185 C 251.548 101.358, 248.149 108.598, 243.483 117.273 C 235.340 132.414, 233.378 136.728, 236.534 132.555 C 237.343 131.486, 242.166 125.707, 247.253 119.713 C 252.339 113.720, 258.612 105.656, 261.194 101.794 L 265.888 94.772 280.433 87.450 L 294.979 80.128 291.558 77.314 C 289.677 75.766, 286.826 73.728, 285.223 72.785 C 282.316 71.074, 282.289 71.081, 274.862 75.785 M 109.038 135.574 C 104.081 138.408, 91 147.912, 91 148.680 C 91 148.950, 93.093 148.001, 95.652 146.571 C 100.358 143.941, 102.216 143.830, 100.164 146.303 C 99.547 147.046, 98.334 149.419, 97.468 151.577 C 96.007 155.218, 96.492 154.875, 104.197 146.814 C 108.764 142.037, 113.734 137.375, 115.241 136.455 C 118.108 134.705, 118.083 132.991, 115.191 133.012 C 114.261 133.019, 111.492 134.172, 109.038 135.574 M 280.095 137.039 C 277.156 138.646, 274.245 140.364, 273.626 140.857 C 270.639 143.234, 245.971 156.001, 244.350 156.008 C 243.332 156.013, 239.541 155.259, 235.925 154.332 C 230.020 152.819, 228.900 152.798, 224.925 154.125 C 219.459 155.950, 189.651 175.654, 171.029 189.752 C 169.691 190.765, 174.198 191.971, 179.376 191.985 C 184.727 191.999, 186.422 191.383, 198.376 185.077 C 209.027 179.458, 229.283 170, 230.666 170 C 230.842 170, 228.918 173.022, 226.389 176.715 C 223.861 180.409, 222.261 183.587, 222.836 183.779 C 223.767 184.089, 261.026 165.976, 263.500 164.011 C 264.050 163.573, 268.826 161.202, 274.114 158.740 L 283.728 154.264 295.614 161.742 C 302.151 165.856, 309.999 171.534, 313.053 174.361 C 319.562 180.386, 337.683 195.350, 339.054 195.833 C 339.574 196.017, 340 195.715, 340 195.163 C 340 194.611, 334.938 190.325, 328.750 185.639 C 313.555 174.133, 311.390 172.290, 312.156 171.517 C 313.039 170.625, 318.761 174.345, 329 182.469 C 339.812 191.048, 341.425 191.830, 343.825 189.659 C 346.280 187.437, 347.912 187.569, 350.730 190.217 C 352.539 191.916, 353.474 192.191, 354.735 191.395 C 355.640 190.824, 356.531 189.908, 356.714 189.359 C 357.343 187.472, 299.607 142.081, 288.981 136.110 L 285.437 134.118 280.095 137.039 M 148.500 197 C 147.657 198.365, 148.797 200, 150.592 200 C 152.401 200, 160.192 203.919, 165.227 207.361 L 168.955 209.909 181.227 206.331 C 190.874 203.519, 195.474 202.714, 202.722 202.571 C 212.333 202.381, 214.433 201.808, 211.336 200.222 C 205.801 197.387, 194.286 198.217, 185.556 202.078 C 182.968 203.223, 178.521 204.399, 175.675 204.691 C 170.970 205.174, 169.687 204.804, 161.546 200.611 C 152.521 195.964, 149.634 195.165, 148.500 197 M 335.091 199.390 C 334.048 200.647, 331.822 201, 324.937 201 C 319.769 201, 315.845 201.442, 315.459 202.067 C 315.096 202.653, 314.980 203.313, 315.200 203.533 C 316.017 204.350, 335.151 202.249, 336.169 201.231 C 336.750 200.650, 337.045 199.636, 336.826 198.978 C 336.549 198.146, 336.019 198.272, 335.091 199.390 M 359.443 208.223 C 360.299 209.445, 361 211.195, 361 212.111 C 361 213.198, 362.130 213.992, 364.250 214.394 C 366.038 214.733, 368.772 215.675, 370.327 216.486 C 375.655 219.266, 372.575 215.684, 365.421 210.780 C 361.614 208.170, 358.362 206.027, 358.193 206.018 C 358.025 206.008, 358.587 207, 359.443 208.223 M 185.500 209.170 C 183.850 209.719, 179.800 210.752, 176.500 211.465 C 171.785 212.484, 171.208 212.787, 173.807 212.881 C 178.215 213.040, 186.141 211.073, 187.964 209.369 C 189.628 207.814, 189.586 207.810, 185.500 209.170 M 317.603 211.167 C 317.886 211.625, 318.965 212, 320 212 C 321.035 212, 322.114 211.625, 322.397 211.167 C 322.680 210.708, 321.602 210.333, 320 210.333 C 318.398 210.333, 317.320 210.708, 317.603 211.167 M 338.673 215.258 C 333.649 217.953, 332.565 218.210, 330.814 217.116 C 329.697 216.418, 328.959 216.219, 329.176 216.674 C 329.392 217.128, 330.395 219.425, 331.404 221.778 C 332.922 225.316, 333.434 225.797, 334.370 224.562 C 334.991 223.741, 338.762 221.448, 342.750 219.466 C 350.240 215.743, 351.246 214.673, 348.250 213.616 C 347.288 213.276, 346.050 212.803, 345.500 212.565 C 344.950 212.326, 341.878 213.538, 338.673 215.258 M 178.500 216 C 175.824 216.681, 175.770 216.763, 178 216.763 C 179.375 216.763, 181.850 216.420, 183.500 216 C 186.176 215.319, 186.230 215.237, 184 215.237 C 182.625 215.237, 180.150 215.580, 178.500 216 M 322.750 215.716 C 321.238 215.945, 320 216.583, 320 217.134 C 320 218.150, 323.191 217.499, 326 215.909 C 327.553 215.031, 327.352 215.019, 322.750 215.716 M 358.710 219 C 359.076 220.399, 360.025 220.970, 361.867 220.900 C 365.872 220.749, 369.305 219.584, 369.759 218.222 C 370.050 217.350, 368.452 217, 364.177 217 C 358.680 217, 358.230 217.164, 358.710 219 M 352.500 222 C 352.160 222.550, 352.782 223, 353.882 223 C 354.982 223, 356.160 222.550, 356.500 222 C 356.840 221.450, 356.218 221, 355.118 221 C 354.018 221, 352.840 221.450, 352.500 222 M 370.630 224.099 C 369.653 228.985, 359.832 237.804, 350.194 242.450 C 341.298 246.739, 339.630 249.276, 345 250.350 C 347.316 250.813, 348 251.488, 348 253.308 C 348 254.605, 348.491 258.104, 349.092 261.083 C 350.146 266.310, 350.304 266.506, 353.592 266.679 C 355.466 266.777, 356.997 266.552, 356.992 266.179 C 356.988 265.806, 356.516 262.609, 355.942 259.075 C 355.369 255.541, 355.207 250.189, 355.583 247.181 C 356.224 242.052, 356.712 241.273, 363.463 234.607 C 369.784 228.364, 374.444 221, 372.073 221 C 371.620 221, 370.971 222.395, 370.630 224.099 M 358.500 225.002 C 343.344 228.670, 335.877 231.184, 336.407 232.439 C 336.653 233.023, 337.622 236.088, 338.559 239.250 C 339.497 242.412, 340.704 245, 341.242 245 C 343.466 245, 354.159 238.507, 360.218 233.478 C 365.970 228.703, 370.762 223.272, 369.830 222.583 C 369.648 222.449, 364.550 223.537, 358.500 225.002 M 307.081 228.600 C 301.350 231.079, 295.500 233.141, 294.081 233.183 C 292.661 233.225, 283.400 232.910, 273.500 232.483 L 255.500 231.707 250.370 234.310 L 245.239 236.913 237.370 231.476 C 233.041 228.485, 228.834 226.030, 228.020 226.019 C 227.206 226.009, 223.950 227.598, 220.786 229.551 C 215.493 232.818, 214.730 233.019, 211.266 232.057 C 206.949 230.858, 194 230.626, 194 231.748 C 194 233.184, 201.275 254.509, 202.140 255.610 C 202.620 256.221, 204.135 256.506, 205.506 256.244 C 208.452 255.680, 208.877 257.608, 206.250 259.621 C 204.721 260.793, 204.689 261.088, 206 261.958 C 208.822 263.832, 222.148 266.235, 227.327 265.804 C 231.372 265.468, 238.606 262.476, 260.500 252.084 C 275.900 244.774, 295.025 235.857, 303 232.268 C 316.583 226.155, 320.759 223.933, 318.450 224.047 C 317.928 224.073, 312.811 226.122, 307.081 228.600 M 336.250 227.566 C 333.913 228.967, 332 230.350, 332 230.638 C 332 231.177, 338.747 227.346, 340.450 225.840 C 342.169 224.320, 340.568 224.978, 336.250 227.566 M 282 250.580 C 268.525 256.941, 252.775 264.164, 247 266.632 C 241.225 269.100, 234.531 272.218, 232.124 273.560 C 228.763 275.434, 226.269 276, 221.374 276 C 214.753 276, 211 277.990, 211 281.501 C 211 282.327, 213.211 289.865, 215.914 298.251 C 218.616 306.638, 221.581 316.425, 222.502 320 C 223.422 323.575, 224.853 326.883, 225.680 327.351 C 226.784 327.976, 227.013 329.119, 226.539 331.646 C 226.053 334.237, 226.428 335.956, 228.052 338.585 C 229.301 340.605, 229.985 342.949, 229.674 344.141 C 228.931 346.979, 230.749 350.565, 233.587 351.858 C 235.824 352.877, 236.268 352.438, 241.727 343.811 C 244.902 338.792, 249.075 332.873, 251 330.659 C 252.996 328.362, 253.780 326.900, 252.823 327.256 C 251.853 327.618, 250.589 327.206, 249.823 326.278 C 249.095 325.396, 246.508 323.792, 244.074 322.713 C 240.044 320.926, 230 312.627, 230 311.083 C 230 309.971, 247.201 288.645, 254.110 281.191 C 260.319 274.491, 260.900 274.111, 263.694 274.912 C 265.329 275.381, 269.509 276.095, 272.982 276.498 L 279.296 277.231 278.656 274.032 C 278.305 272.273, 277.098 270.084, 275.974 269.167 C 274.851 268.250, 273.835 266.150, 273.716 264.500 L 273.500 261.500 280 261.855 C 289.204 262.357, 289.686 262.861, 285.418 267.520 C 281.910 271.350, 281.849 271.552, 283.024 275.474 L 284.230 279.499 287.571 275.634 C 294.807 267.263, 309 244.104, 309 240.667 C 309 239.750, 308.438 239.003, 307.750 239.008 C 307.063 239.012, 295.475 244.219, 282 250.580 M 333.500 252 C 332.181 252.567, 332.011 252.878, 333 252.914 C 333.825 252.945, 335.175 252.533, 336 252 C 337.828 250.819, 336.249 250.819, 333.500 252 M 343.542 267.573 C 345.013 270.833, 347.132 275.648, 348.251 278.274 C 349.370 280.899, 350.512 282.821, 350.789 282.544 C 351.537 281.796, 343.968 264.218, 342.303 262.836 C 341.465 262.141, 341.980 264.111, 343.542 267.573 M 300.781 265.599 C 300.492 266.094, 301.098 267.366, 302.128 268.425 C 304.281 270.639, 304.659 269.283, 302.653 266.540 C 301.912 265.526, 301.069 265.103, 300.781 265.599 M 298.572 268.883 C 298.227 269.442, 298.969 270.446, 300.222 271.114 C 302.370 272.258, 302.416 272.218, 301.033 270.414 C 300.226 269.361, 299.484 268.358, 299.383 268.183 C 299.283 268.009, 298.918 268.324, 298.572 268.883 M 297.500 273 C 297.840 273.550, 298.568 274, 299.118 274 C 299.668 274, 299.840 273.550, 299.500 273 C 299.160 272.450, 298.432 272, 297.882 272 C 297.332 272, 297.160 272.450, 297.500 273 M 353.031 273.500 C 353.031 274.050, 353.467 275.175, 354 276 C 354.533 276.825, 354.969 277.050, 354.969 276.500 C 354.969 275.950, 354.533 274.825, 354 274 C 353.467 273.175, 353.031 272.950, 353.031 273.500 M 294 274.878 C 294 276.156, 296.940 278.393, 297.667 277.667 C 298.393 276.940, 296.156 274, 294.878 274 C 294.395 274, 294 274.395, 294 274.878 M 291.717 277.701 C 291.463 278.141, 292.098 279.366, 293.128 280.425 C 294.660 282.001, 295 282.068, 295 280.797 C 295 278.986, 292.394 276.529, 291.717 277.701 M 289 281.878 C 289 283.156, 291.940 285.393, 292.667 284.667 C 293.393 283.940, 291.156 281, 289.878 281 C 289.395 281, 289 281.395, 289 281.878 M 356.850 284.017 C 356.614 285.694, 355.770 286.604, 354.250 286.820 C 353.012 286.995, 352 287.608, 352 288.181 C 352 289.093, 358.809 288.500, 359.828 287.499 C 360.009 287.322, 359.491 285.907, 358.678 284.356 L 357.200 281.534 356.850 284.017 M 196.258 290.136 C 192.274 294.030, 189.307 297.687, 189.663 298.263 C 190.018 298.839, 192.781 302.728, 195.802 306.905 C 202.374 315.992, 208.669 328.938, 211.086 338.334 C 212.055 342.100, 213.116 345.449, 213.444 345.777 C 213.772 346.106, 215.944 345.418, 218.270 344.249 C 221.487 342.633, 221.975 342.109, 220.309 342.062 C 219.104 342.028, 217.840 342.450, 217.500 343 C 217.160 343.550, 216.409 344, 215.830 344 C 215.252 344, 215.728 343.212, 216.888 342.250 C 220.157 339.538, 218.801 333.405, 214.351 330.779 C 210.638 328.589, 210.771 327, 214.666 327 C 216.682 327, 217.074 326.635, 216.542 325.250 C 215.739 323.158, 205.681 290.881, 204.398 286.278 L 203.500 283.055 196.258 290.136 M 253.258 288.091 C 248.410 293.525, 237.240 309.471, 237.710 310.287 C 237.960 310.720, 239.551 309.145, 241.247 306.787 C 245.671 300.635, 256.322 287.560, 257.230 287.167 C 257.654 286.983, 258 286.421, 258 285.917 C 258 284.118, 255.972 285.048, 253.258 288.091 M 286.654 285.751 C 286.365 286.218, 287 287.144, 288.065 287.808 C 289.129 288.473, 290 288.618, 290 288.131 C 290 286.758, 287.243 284.798, 286.654 285.751 M 258.672 289.979 C 257.746 291.545, 253.430 297.554, 249.080 303.332 C 244.730 309.110, 241.433 314.099, 241.752 314.419 C 243.608 316.275, 246.589 314.014, 253.641 305.402 C 257.963 300.123, 262.547 294.527, 263.827 292.967 L 266.155 290.131 263.254 288.631 C 260.450 287.181, 260.298 287.226, 258.672 289.979 M 285 288.378 C 285 288.585, 285.685 289.324, 286.523 290.019 C 287.796 291.076, 287.943 291.014, 287.416 289.641 C 286.878 288.240, 285 287.257, 285 288.378 M 121.374 290.938 C 119.872 291.578, 119.359 292.528, 119.628 294.172 C 119.837 295.452, 120.920 303.025, 122.035 311 C 124.804 330.816, 125.052 332, 126.424 332 C 128.132 332, 131.870 327.706, 138.015 318.686 C 140.943 314.389, 146.232 308.332, 149.769 305.226 C 156.046 299.715, 156.152 299.541, 154.189 297.952 C 148.824 293.607, 126.373 288.809, 121.374 290.938 M 281.091 293.611 C 279.635 295.462, 279.209 297.020, 279.652 298.871 C 280.493 302.385, 280.822 302.633, 281.671 300.393 C 282.065 299.352, 282.976 297.905, 283.694 297.179 C 285.202 295.652, 285.427 292.382, 284.080 291.549 C 283.574 291.237, 282.229 292.165, 281.091 293.611 M 107.250 293.247 C 105.463 293.820, 104.023 294.562, 104.052 294.895 C 104.204 296.659, 121.752 330.417, 122.677 330.726 C 123.438 330.979, 123.377 329.202, 122.477 324.891 C 121.766 321.482, 120.359 312.686, 119.350 305.346 L 117.517 292 114.009 292.102 C 112.079 292.158, 109.037 292.673, 107.250 293.247 M 380.110 292.911 C 378.947 293.647, 379.157 295.573, 381.389 304.646 C 382.858 310.616, 384.833 320, 385.779 325.500 L 387.500 335.500 390.694 335.809 C 394.312 336.159, 395.370 334.696, 398.510 325 C 399.490 321.975, 402.493 314.423, 405.184 308.217 C 407.876 302.012, 409.816 296.511, 409.496 295.993 C 407.597 292.920, 384.003 290.445, 380.110 292.911 M 281.409 294.376 C 280.562 296.584, 281.689 297.711, 283.217 296.183 C 284.119 295.281, 284.122 294.722, 283.233 293.833 C 282.343 292.943, 281.909 293.072, 281.409 294.376 M 370.148 295.284 L 365.797 296.327 366.422 300.237 C 366.766 302.388, 369.511 310.977, 372.522 319.324 C 375.533 327.671, 377.997 335.063, 377.998 335.750 C 378 337.325, 378.314 337.314, 382.448 335.586 C 385.703 334.226, 385.812 334.006, 385.298 329.836 C 385.004 327.451, 383.016 318.628, 380.881 310.229 C 378.747 301.830, 377 294.742, 377 294.479 C 377 293.840, 375.368 294.032, 370.148 295.284 M 92.973 299.250 C 86.805 302.428, 77 310.303, 77 312.079 C 77 314.486, 96.184 335.467, 102.197 339.635 L 105.894 342.199 113.404 338.053 L 120.914 333.907 111.707 315.021 C 105.567 302.427, 101.964 296.112, 100.890 296.067 C 100.005 296.030, 96.443 297.462, 92.973 299.250 M 181.644 300.546 C 175.434 305.287, 175.701 305.930, 182 301.405 C 186.480 298.186, 187.730 297, 186.644 297 C 186.448 297, 184.198 298.596, 181.644 300.546 M 407.952 306.721 C 402.481 319.190, 396.135 335, 396.601 335 C 396.798 335, 397.928 333.087, 399.111 330.750 C 401.802 325.436, 410.650 312.525, 412.786 310.794 C 414.785 309.175, 414.262 310.090, 408.332 318.578 C 405.997 321.921, 402.574 327.331, 400.726 330.600 L 397.366 336.545 402.703 340.329 L 408.041 344.114 412.770 340.363 C 417.023 336.990, 419.891 333.934, 433.393 318.390 L 437.286 313.908 432.338 309.139 C 427.584 304.556, 418.827 298.924, 414.372 297.583 C 412.470 297.011, 411.785 297.987, 407.952 306.721 M 275.369 301.560 C 273.811 303.937, 273.809 304.238, 275.339 305.767 C 277.548 307.977, 280.031 305.948, 278.046 303.555 C 277.348 302.714, 277.037 301.345, 277.357 300.513 C 278.252 298.181, 277.230 298.719, 275.369 301.560 M 151.446 305.750 C 146.280 310.682, 130 330.921, 130 332.412 C 130 332.691, 131.727 333.437, 133.838 334.070 C 136.980 335.011, 138.203 334.941, 140.588 333.681 C 144.034 331.861, 157.086 321.417, 165.390 313.834 L 171.279 308.455 164.983 304.228 C 161.521 301.902, 158.413 300, 158.078 300 C 157.744 300, 154.759 302.587, 151.446 305.750 M 369.429 306.722 C 373.779 319.379, 380.218 333.870, 381.753 334.459 C 382.888 334.894, 383.020 334.717, 382.264 333.773 C 381.704 333.073, 378.456 325.418, 375.046 316.762 C 368.733 300.735, 365.204 294.426, 369.429 306.722 M 349.012 306.750 C 340.612 312.661, 340.601 312.326, 349.589 324.080 C 356.857 333.586, 362.625 339.023, 365.398 338.985 C 369.083 338.933, 369.041 337.342, 365.051 325.768 C 360.256 311.863, 356.431 303, 355.226 303 C 354.739 303, 351.943 304.688, 349.012 306.750 M 271.570 307.065 C 271.217 307.926, 271.349 309.726, 271.864 311.065 C 272.698 313.236, 272.879 313.305, 273.528 311.695 C 273.929 310.702, 273.796 308.902, 273.234 307.695 C 272.390 305.884, 272.099 305.774, 271.570 307.065 M 267.557 312.223 C 265.554 315.081, 265.597 315.714, 267.871 316.931 C 269.559 317.834, 269.732 317.544, 269.638 313.966 C 269.581 311.785, 269.439 310, 269.324 310 C 269.208 310, 268.413 311, 267.557 312.223 M 163.253 322.564 C 158.168 327.615, 151.767 333.266, 149.029 335.124 C 143.101 339.145, 142.572 340.484, 147.750 338.358 C 157.151 334.498, 180 322.624, 180 321.598 C 180 320.187, 174.110 312.928, 173.177 313.190 C 172.805 313.295, 168.339 317.513, 163.253 322.564 M 72.210 317.750 C 67.223 324.869, 67.005 324.401, 77.657 329.447 C 82.969 331.964, 89.495 335.363, 92.158 337.002 C 94.821 338.641, 97 339.723, 97 339.407 C 97 339.091, 94.799 336.507, 92.109 333.666 C 89.419 330.825, 84.608 325.462, 81.419 321.750 C 78.230 318.038, 75.287 315, 74.878 315 C 74.470 315, 73.269 316.238, 72.210 317.750 M 338.307 317.250 C 337.184 318.488, 335.520 320.674, 334.610 322.109 C 332.631 325.229, 332.179 324.789, 344.743 331.963 C 351.397 335.762, 354.594 338.257, 356.158 340.870 C 360.097 347.453, 360.724 347.897, 364.464 346.750 L 367.818 345.720 362.659 342.184 C 356.671 338.081, 357.107 338.578, 347.829 325.250 C 343.905 319.613, 340.616 315, 340.521 315 C 340.426 315, 339.430 316.012, 338.307 317.250 M 432 322.542 C 428.975 326.126, 424.835 331.160, 422.801 333.729 C 420.767 336.297, 416.526 340.093, 413.377 342.164 C 409.333 344.823, 408.099 346.101, 409.176 346.514 C 410.123 346.877, 412.097 345.703, 414.384 343.416 C 418.121 339.679, 420.838 339.312, 417.506 342.994 C 414.987 345.777, 416.153 345.649, 431.397 341.470 C 438.479 339.529, 444.446 338.113, 444.657 338.324 C 445.002 338.669, 428.597 343.454, 418.469 345.961 C 411.709 347.635, 411.087 348.573, 411.841 355.953 L 412.500 362.406 422 365.186 C 434.687 368.898, 451.878 372.456, 452.777 371.555 C 453.174 371.157, 453.483 364.906, 453.463 357.665 C 453.429 345.876, 453.140 343.720, 450.699 337.036 C 449.199 332.931, 447.564 329.164, 447.064 328.664 C 446.156 327.756, 429.856 334.189, 423.124 338.113 C 421.267 339.196, 419.556 339.889, 419.321 339.655 C 418.258 338.591, 424.829 334.919, 434.893 330.952 C 445.148 326.911, 445.800 326.490, 444.810 324.563 C 443.212 321.454, 438.993 315.998, 438.199 316.013 C 437.815 316.021, 435.025 318.959, 432 322.542 M 261.267 319.960 L 259.034 322.776 261.267 323.374 C 262.495 323.703, 264.175 323.965, 265 323.956 C 266.175 323.943, 266.120 323.718, 264.750 322.920 C 263.788 322.359, 263 321.418, 263 320.828 C 263 320.148, 263.559 320.219, 264.524 321.020 C 266.784 322.896, 267.323 321.601, 265.275 319.214 L 263.500 317.144 261.267 319.960 M 169 329.570 C 145.401 341.552, 146.516 340.807, 148.647 343.170 C 150.256 344.955, 151.266 345.146, 156.321 344.621 C 163.628 343.861, 188.003 336.183, 187.991 334.644 C 187.982 333.540, 182.197 322.885, 181.730 323.112 C 181.603 323.173, 175.875 326.080, 169 329.570 M 64.775 330.526 C 62.861 334.465, 62.757 335.234, 64.025 336.037 C 65.274 336.826, 65.239 336.972, 63.797 336.985 C 58.396 337.033, 57.488 368.660, 62.541 380.752 L 63.962 384.153 77.231 377.186 C 84.529 373.354, 91.625 369.908, 93 369.528 C 96.341 368.604, 77.029 379.603, 69.788 382.748 L 64.076 385.228 66.288 389.245 C 67.505 391.454, 69.097 394.348, 69.826 395.676 C 72.391 400.346, 83.231 410.972, 89.935 415.388 C 96.028 419.402, 104.012 423.447, 104.492 422.763 C 105.123 421.863, 111.617 402.082, 113.606 395 C 116.422 384.971, 116.207 382.748, 113.026 389 C 110.447 394.068, 98.682 409.192, 94.355 413 C 92.562 414.578, 92.111 414.762, 93.133 413.500 C 101.492 403.171, 110.434 391.069, 112.055 387.892 C 115.290 381.551, 114.347 381.985, 93.704 396.342 C 86.667 401.237, 80.605 404.938, 80.233 404.567 C 79.862 404.195, 80.018 403.578, 80.579 403.196 C 90.962 396.124, 111.122 381.612, 111.571 380.886 C 112.221 379.833, 105.003 368.023, 103.700 368.009 C 101.548 367.985, 96.065 371.859, 87.228 379.646 C 75.697 389.807, 71.102 393.435, 70.512 392.846 C 70.274 392.607, 75.089 388.157, 81.212 382.956 C 87.335 377.755, 93.506 372.339, 94.925 370.921 C 96.344 369.502, 98.795 368.017, 100.371 367.622 C 101.947 367.226, 102.988 366.655, 102.685 366.352 C 102.382 366.049, 100.641 366.285, 98.817 366.878 C 92.337 368.981, 59.337 371.329, 61.106 369.561 C 61.347 369.319, 66.935 368.655, 73.522 368.085 C 80.110 367.514, 89.662 366.490, 94.750 365.809 L 104 364.570 104 355.825 L 104 347.080 97.750 345.179 C 94.313 344.133, 86.814 342.227, 81.086 340.943 C 75.358 339.659, 71.117 338.461, 71.661 338.280 C 72.205 338.098, 78.449 339.291, 85.536 340.931 C 92.622 342.571, 98.583 343.751, 98.781 343.553 C 99.527 342.806, 90.166 337.095, 81.500 333.010 C 76.550 330.677, 71.262 328.134, 69.750 327.358 C 67.032 325.965, 66.973 326.002, 64.775 330.526 M 329.609 331.020 C 327.551 336.163, 327.581 337.732, 329.750 338.362 C 330.779 338.661, 330.485 338.794, 329.034 338.685 C 326.830 338.520, 326.429 339.083, 325.252 344 C 323.454 351.511, 324.170 371.891, 326.453 378.199 L 328.153 382.898 341.821 375.871 C 355.675 368.748, 358.249 367.214, 354.326 368.419 C 351.857 369.177, 330.160 372.983, 328.250 372.993 C 327.563 372.997, 327 372.638, 327 372.195 C 327 371.752, 330.488 370.818, 334.750 370.120 C 357.487 366.393, 365.028 364.026, 364.952 360.641 C 364.845 355.884, 361.605 351.554, 356 348.680 C 352.975 347.129, 351.329 346.118, 352.343 346.434 C 353.356 346.750, 355.317 347.293, 356.701 347.640 C 359.082 348.237, 359.149 348.144, 357.966 345.885 C 354.988 340.199, 352.544 338.023, 343.130 332.672 C 337.642 329.552, 332.716 327, 332.184 327 C 331.652 327, 330.493 328.809, 329.609 331.020 M 187.688 336.645 C 187.303 337.030, 182.153 339.040, 176.244 341.112 C 170.158 343.245, 166.584 344.923, 168 344.982 C 169.375 345.039, 175.171 345.338, 180.881 345.647 L 191.262 346.209 190.540 342.355 C 189.677 337.752, 188.646 335.687, 187.688 336.645 M 66.750 337.662 C 67.438 337.940, 68.563 337.940, 69.250 337.662 C 69.938 337.385, 69.375 337.158, 68 337.158 C 66.625 337.158, 66.063 337.385, 66.750 337.662 M 121.813 338.683 C 122.534 338.972, 123.397 338.936, 123.729 338.604 C 124.061 338.272, 123.471 338.036, 122.417 338.079 C 121.252 338.127, 121.015 338.364, 121.813 338.683 M 114 340 C 114 340.550, 114.477 341, 115.059 341 C 115.641 341, 115.840 340.550, 115.500 340 C 115.160 339.450, 114.684 339, 114.441 339 C 114.198 339, 114 339.450, 114 340 M 99.568 341.315 C 100.161 342.863, 105 345.427, 105 344.194 C 105 343.775, 103.656 342.637, 102.013 341.666 C 99.734 340.321, 99.154 340.237, 99.568 341.315 M 109.998 341.624 L 107.500 343.083 110 342.417 C 112.785 341.676, 113.536 341.203, 112.915 340.582 C 112.685 340.352, 111.373 340.821, 109.998 341.624 M 336 341 C 336.825 341.533, 337.950 341.969, 338.500 341.969 C 339.050 341.969, 338.825 341.533, 338 341 C 337.175 340.467, 336.050 340.031, 335.500 340.031 C 334.950 340.031, 335.175 340.467, 336 341 M 138.250 342.031 C 135.266 343.231, 135.391 343.839, 138.500 343.245 C 139.875 342.982, 141 342.369, 141 341.883 C 141 341.398, 140.887 341.029, 140.750 341.063 C 140.613 341.098, 139.488 341.534, 138.250 342.031 M 380.015 342.408 C 380.024 343.008, 380.467 344.175, 381 345 C 381.862 346.333, 381.974 346.333, 382.015 345 C 382.047 343.941, 382.389 344.088, 383.178 345.500 C 383.792 346.600, 384.415 347.648, 384.561 347.830 C 385.197 348.620, 393 342.784, 393 341.519 C 393 341.175, 390.075 340.989, 386.500 341.105 C 382.584 341.232, 380.006 341.749, 380.015 342.408 M 341 342.831 C 341.825 343.341, 343.625 344.059, 345 344.427 C 346.737 344.892, 347.042 344.813, 346 344.169 C 345.175 343.659, 343.375 342.941, 342 342.573 C 340.263 342.108, 339.958 342.187, 341 342.831 M 394.750 344.470 C 393.788 345.793, 393 347.192, 393 347.578 C 393 347.964, 393.788 348.893, 394.750 349.642 C 396.377 350.909, 396.359 350.961, 394.500 350.374 C 393.400 350.028, 395.875 352.234, 400 355.277 C 407.901 361.106, 409.951 361.798, 405.921 357.276 C 404.589 355.783, 404.288 355.165, 405.250 355.903 C 407.419 357.566, 407.519 356.185, 405.443 353.223 C 404.547 351.942, 402.745 350.950, 401.193 350.882 C 398.522 350.764, 398.524 350.758, 401.500 350.122 C 405.449 349.277, 405.302 347.120, 401.102 344.290 C 396.948 341.491, 396.915 341.491, 394.750 344.470 M 106.564 344.293 C 106.940 345.279, 107.499 345.834, 107.807 345.526 C 108.115 345.219, 107.808 344.412, 107.124 343.733 C 106.136 342.753, 106.022 342.868, 106.564 344.293 M 158 346.701 C 151.534 347.630, 150.616 348.050, 152.094 349.406 C 154.855 351.939, 173.049 356.455, 185.250 357.634 L 192 358.287 192 353.233 L 192 348.180 183.750 347.611 C 169.813 346.650, 160.617 346.325, 158 346.701 M 195.750 348.662 C 196.438 348.940, 197.563 348.940, 198.250 348.662 C 198.938 348.385, 198.375 348.158, 197 348.158 C 195.625 348.158, 195.063 348.385, 195.750 348.662 M 201.750 349.662 C 202.438 349.940, 203.563 349.940, 204.250 349.662 C 204.938 349.385, 204.375 349.158, 203 349.158 C 201.625 349.158, 201.063 349.385, 201.750 349.662 M 209.750 349.662 C 210.438 349.940, 211.563 349.940, 212.250 349.662 C 212.938 349.385, 212.375 349.158, 211 349.158 C 209.625 349.158, 209.063 349.385, 209.750 349.662 M 225.500 350 C 225.160 350.550, 225.359 351, 225.941 351 C 226.523 351, 227 350.550, 227 350 C 227 349.450, 226.802 349, 226.559 349 C 226.316 349, 225.840 349.450, 225.500 350 M 105.158 352 C 105.158 353.375, 105.385 353.938, 105.662 353.250 C 105.940 352.563, 105.940 351.438, 105.662 350.750 C 105.385 350.063, 105.158 350.625, 105.158 352 M 119.345 353.543 C 119.019 354.392, 119.034 355.367, 119.376 355.710 C 119.719 356.053, 120 355.621, 120 354.750 C 120 353.879, 120.563 352.940, 121.250 352.662 C 122.229 352.267, 122.222 352.141, 121.219 352.079 C 120.514 352.036, 119.671 352.694, 119.345 353.543 M 212.500 352.765 C 211.950 353.169, 211.454 354.931, 211.397 356.679 C 211.299 359.708, 211.370 359.769, 212.897 357.977 C 213.779 356.943, 215.625 355.190, 217 354.081 L 219.500 352.067 216.500 352.049 C 214.850 352.039, 213.050 352.361, 212.500 352.765 M 373 352.476 C 373 352.738, 373.898 354.425, 374.996 356.226 C 377.313 360.026, 377.833 363.521, 375.634 360.514 C 374.411 358.842, 373.934 358.785, 371.078 359.968 C 367.142 361.598, 368.055 362.555, 374.314 363.360 C 378.953 363.957, 379.103 363.898, 378.436 361.740 C 376.972 357.003, 373 350.235, 373 352.476 M 151.200 354.200 C 149.168 356.232, 149.810 356.820, 155.250 357.912 C 163.584 359.584, 187.011 363, 190.146 363 C 192.845 363, 193.956 361.709, 192.194 360.620 C 191.751 360.346, 186.238 359.426, 179.944 358.574 C 173.650 357.723, 165.125 356.129, 161 355.031 C 152.071 352.654, 152.693 352.707, 151.200 354.200 M 226.269 354.693 C 227.242 354.947, 228.592 354.930, 229.269 354.656 C 229.946 354.382, 229.150 354.175, 227.500 354.195 C 225.850 354.215, 225.296 354.439, 226.269 354.693 M 231.813 355.683 C 232.534 355.972, 233.397 355.936, 233.729 355.604 C 234.061 355.272, 233.471 355.036, 232.417 355.079 C 231.252 355.127, 231.015 355.364, 231.813 355.683 M 126.733 357.124 C 127.412 357.808, 128.219 358.115, 128.526 357.807 C 128.834 357.499, 128.279 356.940, 127.293 356.564 C 125.868 356.022, 125.753 356.136, 126.733 357.124 M 236 356.714 C 236.825 357.020, 238.400 357.684, 239.500 358.190 C 241.468 359.096, 241.469 359.085, 239.559 357.555 C 238.491 356.700, 236.916 356.036, 236.059 356.079 C 234.712 356.147, 234.704 356.234, 236 356.714 M 400 360.110 C 400 361.991, 399.100 365.209, 398 367.261 C 395.254 372.385, 395.370 375, 398.345 375 C 405.009 375, 407.562 363.533, 402.015 358.514 C 400.032 356.719, 400 356.745, 400 360.110 M 244 361.500 C 245.292 362.875, 246.574 364, 246.849 364 C 247.124 364, 246.292 362.875, 245 361.500 C 243.708 360.125, 242.426 359, 242.151 359 C 241.876 359, 242.708 360.125, 244 361.500 M 142.750 361.662 C 143.438 361.940, 144.563 361.940, 145.250 361.662 C 145.938 361.385, 145.375 361.158, 144 361.158 C 142.625 361.158, 142.063 361.385, 142.750 361.662 M 153.500 363.046 C 156.250 363.474, 160.300 363.801, 162.500 363.772 C 165.983 363.725, 165.789 363.620, 161 362.958 C 157.975 362.540, 153.925 362.213, 152 362.233 C 149.195 362.260, 149.493 362.422, 153.500 363.046 M 169.762 364.707 C 171.006 364.946, 172.806 364.937, 173.762 364.687 C 174.718 364.437, 173.700 364.241, 171.500 364.252 C 169.300 364.263, 168.518 364.468, 169.762 364.707 M 147 366.071 C 147 366.659, 145.127 369.362, 142.839 372.076 C 140.550 374.790, 138.863 377.121, 139.089 377.255 C 139.315 377.390, 141.257 378.396, 143.405 379.491 C 145.553 380.586, 151.638 385.597, 156.927 390.626 L 166.543 399.769 172.330 398.861 C 175.512 398.362, 178.653 398.261, 179.308 398.637 C 179.964 399.013, 180.198 398.984, 179.828 398.572 C 179.459 398.160, 180.471 395.750, 182.078 393.216 C 183.685 390.682, 184.996 387.909, 184.990 387.054 C 184.984 386.144, 179.492 382.106, 171.740 377.312 C 154.296 366.524, 147 363.209, 147 366.071 M 361 366 C 359.667 366.862, 359.667 366.963, 361 366.914 C 361.825 366.884, 363.400 366.473, 364.500 366 L 366.500 365.141 364.500 365.086 C 363.400 365.055, 361.825 365.467, 361 366 M 413.982 366.479 C 414.533 367.142, 414.649 368.052, 414.241 368.502 C 413.834 368.952, 414.073 368.990, 414.774 368.586 C 415.529 368.151, 422.748 371.343, 432.488 376.419 L 448.927 384.986 450.463 379.811 C 451.309 376.965, 452 374.356, 452 374.014 C 452 373.671, 448.512 372.805, 444.250 372.089 C 439.988 371.373, 432.836 369.726, 428.357 368.429 C 418.347 365.530, 412.541 364.742, 413.982 366.479 M 160.500 368.422 C 163.575 369.825, 168.581 370.968, 173.500 371.390 C 177.900 371.768, 183.075 372.501, 185 373.019 L 188.500 373.962 184.500 373.534 C 182.300 373.299, 177.575 372.825, 174 372.482 L 167.500 371.858 176 377.409 C 180.675 380.462, 185.045 382.969, 185.711 382.980 C 186.609 382.995, 190 374.594, 190 372.357 C 190 371.691, 181.424 369.866, 171.852 368.496 C 166.158 367.682, 160.150 366.818, 158.500 366.578 C 156.150 366.235, 156.584 366.635, 160.500 368.422 M 369 366.497 C 369 367.875, 376.453 374.996, 377.866 374.969 C 380.040 374.927, 387.401 370.363, 386.335 369.717 C 382.816 367.583, 369 365.017, 369 366.497 M 229.029 368.961 C 228.220 369.473, 227.803 370.136, 228.102 370.435 C 228.401 370.735, 229.513 370.323, 230.573 369.521 C 232.681 367.926, 231.400 367.461, 229.029 368.961 M 353.481 375.572 C 343.767 382.941, 340 385.484, 340 384.674 C 340 384.456, 343.332 381.725, 347.405 378.605 C 359.218 369.558, 358.412 369.244, 343.238 376.984 C 335.407 380.978, 329 384.431, 329 384.656 C 329 387.265, 342.147 407, 343.885 407 C 345.858 407, 366.909 390.267, 374.294 382.829 L 377.087 380.015 373.534 376.896 C 371.580 375.180, 369.213 372.476, 368.275 370.888 C 367.336 369.300, 365.870 368, 365.016 368 C 364.162 368, 358.971 371.407, 353.481 375.572 M 407.633 371.750 C 406.318 373.813, 404.070 376.503, 402.638 377.729 C 400.439 379.611, 400.183 380.351, 400.995 382.486 C 403.035 387.853, 405.608 391.887, 414.264 403.294 C 419.194 409.791, 423.049 415.284, 422.831 415.503 C 422.434 415.899, 410.042 400.287, 404.638 392.581 C 403.063 390.336, 402.015 389.400, 402.308 390.500 C 405.983 404.288, 411.611 422, 412.318 422 C 412.814 422, 415.964 420.538, 419.319 418.750 C 429.334 413.413, 443.960 397.431, 447.460 388 C 447.872 386.888, 444.397 384.608, 434.022 379.182 C 426.325 375.158, 419.625 372.114, 419.133 372.418 C 418.640 372.722, 416.589 371.853, 414.574 370.486 C 412.560 369.119, 410.712 368, 410.468 368 C 410.224 368, 408.949 369.688, 407.633 371.750 M 213.411 371.498 C 213.066 372.872, 213.148 374.784, 213.593 375.748 C 214.222 377.110, 214.486 376.735, 214.778 374.066 C 215.046 371.621, 215.405 371.037, 216.023 372.037 C 216.500 372.810, 217.205 373.128, 217.588 372.745 C 218.367 371.967, 216.235 369, 214.897 369 C 214.424 369, 213.756 370.124, 213.411 371.498 M 387.750 372.566 C 385.137 373.926, 383 375.427, 383 375.903 C 383 377.159, 387.939 377.908, 388.649 376.759 C 389.032 376.139, 389.479 376.156, 389.881 376.808 C 390.851 378.377, 393.759 375.807, 394.542 372.688 C 395.395 369.289, 394.091 369.265, 387.750 372.566 M 236 371.844 C 236 372.669, 240.424 373, 251.441 373 C 260.656 373, 267.131 373.403, 267.500 374 C 268.266 375.240, 273 375.332, 273 374.107 C 273 372.387, 269.424 371.889, 252.779 371.291 C 240.402 370.846, 236 370.991, 236 371.844 M 424.554 378.825 C 431.275 385.216, 443.494 394.886, 442.888 393.336 C 442.294 391.815, 420.638 373.034, 419.500 373.053 C 418.950 373.062, 421.224 375.660, 424.554 378.825 M 217.110 378.367 C 216.246 379.409, 216.346 380.042, 217.530 381.025 C 219.441 382.611, 221.574 380.939, 220.664 378.567 C 219.923 376.637, 218.608 376.563, 217.110 378.367 M 218 379 C 218 379.550, 218.477 380, 219.059 380 C 219.641 380, 219.840 379.550, 219.500 379 C 219.160 378.450, 218.684 378, 218.441 378 C 218.198 378, 218 378.450, 218 379 M 239 379.441 C 239 381.529, 241.075 382.492, 242.096 380.878 C 243.452 378.738, 243.171 378, 241 378 C 239.900 378, 239 378.648, 239 379.441 M 140.474 381.008 C 140.893 382.379, 143.492 387.921, 146.249 393.325 C 150.593 401.839, 151.546 403.080, 153.381 402.623 C 154.547 402.333, 157.412 401.792, 159.750 401.420 C 162.088 401.048, 164 400.450, 164 400.091 C 164 399.731, 161.412 396.949, 158.250 393.908 C 153.365 389.210, 149.501 385.981, 141.106 379.579 C 139.966 378.710, 139.850 378.970, 140.474 381.008 M 225.385 382.186 C 223.798 383.388, 222.288 384.538, 222.029 384.740 C 220.778 385.719, 225.052 386.971, 229.691 386.985 C 235.663 387.002, 236.831 385.917, 234.563 382.456 C 232.554 379.389, 229.206 379.291, 225.385 382.186 M 405.500 381.929 C 407.809 384.635, 429.150 403.766, 432.351 406 C 434.471 407.480, 434.478 407.466, 432.892 405 C 431.420 402.710, 417.172 390.191, 407.500 382.688 C 404.489 380.353, 403.994 380.165, 405.500 381.929 M 206.554 386.750 C 205.558 389.913, 204.527 393.063, 204.264 393.750 C 203.615 395.447, 206.118 395.349, 214.701 393.342 L 221.902 391.657 216.720 387.791 C 213.869 385.664, 211.169 383.266, 210.719 382.462 C 209.300 379.926, 208.418 380.834, 206.554 386.750 M 387.600 381.755 L 380.700 382.098 381.345 393.299 C 381.700 399.460, 381.993 409.563, 381.995 415.750 C 382 426.332, 382.119 427, 384 427 C 385.313 427, 386 426.333, 386 425.059 C 386 423.991, 386.450 422.840, 387 422.500 C 387.550 422.160, 388 422.809, 388 423.941 C 388 425.716, 388.623 426, 392.519 426 L 397.038 426 396.769 403.833 C 396.601 390.009, 396.124 381.618, 395.500 381.539 C 394.950 381.469, 391.395 381.567, 387.600 381.755 M 135.499 383.585 C 133.875 384.428, 132.205 385.653, 131.788 386.309 C 130.653 388.093, 130.847 396.508, 132.142 401.649 L 133.284 406.185 137.892 405.499 C 140.426 405.122, 142.620 404.698, 142.766 404.557 C 142.913 404.416, 141.871 399.935, 140.450 394.599 C 139.030 389.262, 138.044 384.369, 138.259 383.724 C 138.474 383.079, 139.639 386.814, 140.849 392.025 C 143.555 403.688, 144.001 404.468, 147.462 403.599 L 150.139 402.927 144.977 393.213 C 142.137 387.871, 139.508 383.174, 139.133 382.776 C 138.759 382.378, 137.124 382.742, 135.499 383.585 M 370.411 388.792 C 366.512 392.481, 359.441 398.200, 354.698 401.500 C 349.955 404.800, 346.064 407.950, 346.052 408.500 C 346.004 410.723, 366.064 423.270, 367.450 421.884 C 368.346 420.987, 374.145 394.936, 373.727 393.682 C 373.521 393.063, 369.814 397.598, 365.490 403.759 C 361.166 409.920, 357.446 414.780, 357.224 414.558 C 356.706 414.039, 363.897 403.327, 370.249 395.157 C 374.244 390.018, 378.920 381.858, 377.763 382.042 C 377.619 382.065, 374.310 385.103, 370.411 388.792 M 377.559 386.514 C 376.701 388.566, 375.993 390.977, 375.985 391.872 C 375.971 393.292, 375.840 393.309, 374.954 392 C 374.182 390.859, 374.077 391.099, 374.513 393 C 374.828 394.375, 373.727 401.522, 372.066 408.883 C 370.405 416.243, 369.253 422.600, 369.506 423.010 C 369.927 423.691, 377.796 426, 379.697 426 C 380.604 426, 380.599 384.266, 379.693 383.359 C 379.376 383.043, 378.416 384.462, 377.559 386.514 M 117.580 385.870 C 117.273 386.367, 115.917 390.762, 114.566 395.637 C 113.215 400.512, 111.015 407.425, 109.677 411 C 108.338 414.575, 106.938 418.912, 106.567 420.637 C 105.900 423.729, 105.965 423.792, 110.999 425 C 116.660 426.358, 116.976 426.222, 118.720 421.678 L 119.941 418.500 119.359 422.250 L 118.777 426 122.889 426 C 126.125 426, 127.007 425.628, 127.032 424.250 C 127.062 422.583, 127.127 422.583, 128.392 424.250 C 129.724 426.005, 136 426.770, 136 425.178 C 136 423.666, 132.729 414.516, 131.736 413.250 C 131.196 412.563, 128.988 412, 126.829 412 C 123.366 412, 122.731 412.383, 121.443 415.250 L 119.982 418.500 120.584 414.849 C 121.140 411.472, 120.897 410.996, 117.343 408.501 L 113.500 405.805 117.027 406.406 L 120.554 407.007 123.739 399.966 C 125.490 396.093, 127.206 391.420, 127.551 389.581 C 128.178 386.240, 128.175 386.238, 124.095 386.182 C 121.849 386.151, 119.590 385.865, 119.075 385.546 C 118.560 385.228, 117.887 385.374, 117.580 385.870 M 398.070 404.750 C 398.109 414.512, 398.446 423.230, 398.820 424.121 C 399.417 425.545, 400.082 425.594, 404.266 424.522 C 406.888 423.850, 409.252 423.081, 409.521 422.812 C 409.961 422.373, 407.615 413.451, 401.880 393.750 C 400.799 390.038, 399.484 387, 398.958 387 C 398.381 387, 398.028 394.058, 398.070 404.750 M 194.762 397.707 C 196.006 397.946, 197.806 397.937, 198.762 397.687 C 199.718 397.437, 198.700 397.241, 196.500 397.252 C 194.300 397.263, 193.518 397.468, 194.762 397.707 M 182.762 398.707 C 184.006 398.946, 185.806 398.937, 186.762 398.687 C 187.718 398.437, 186.700 398.241, 184.500 398.252 C 182.300 398.263, 181.518 398.468, 182.762 398.707 M 164.500 402.223 C 159 403.335, 154.292 404.435, 154.038 404.668 C 153.601 405.068, 154.353 406.496, 157.768 411.750 C 160.407 415.812, 158.412 414.101, 155.051 409.421 C 152.184 405.430, 151.426 404.927, 149.133 405.503 C 147.687 405.866, 146.346 406.321, 146.153 406.514 C 145.355 407.312, 150.980 419.523, 152.268 419.791 C 153.846 420.120, 164.523 412.635, 170.329 407.130 C 174.226 403.436, 176.706 399.918, 175.285 400.101 C 174.853 400.157, 170 401.112, 164.500 402.223 M 137 408.456 C 135.075 409.174, 133.553 410.152, 133.618 410.630 C 133.683 411.109, 134.537 414.538, 135.517 418.250 C 137.543 425.934, 138.432 426.349, 145.754 423.025 L 150.008 421.094 147.881 415.797 C 146.711 412.884, 145.532 409.712, 145.260 408.750 C 144.683 406.704, 141.961 406.608, 137 408.456" stroke="none" fill="white" fill-rule="evenodd"/>
</svg>