<svg xmlns="http://www.w3.org/2000/svg" width="512" height="512" viewBox="0 0 512 512" version="1.1">
	<path d="M 371.458 114.073 C 362.593 118.739, 361.679 119.020, 360.081 117.573 C 357.802 115.511, 356.921 115.578, 351.448 118.237 C 346.619 120.584, 346.429 121.180, 348.475 127.567 C 349.023 129.278, 348.433 129.952, 345.051 131.477 C 341.596 133.035, 340.597 133.122, 338.577 132.041 C 336.576 130.970, 335.457 131.042, 331.684 132.483 C 327.511 134.077, 326.787 134.086, 321.840 132.613 L 316.500 131.024 310 137.971 C 305.019 143.295, 301.952 145.601, 296.875 147.840 C 293.232 149.446, 286.758 153.515, 282.490 156.880 C 278.221 160.246, 273.894 163, 272.874 163 C 271.854 163, 265.727 159.558, 259.260 155.351 C 246.563 147.093, 236.719 142.002, 233.446 142.001 C 232.316 142, 229.263 143.350, 226.661 145 C 224.059 146.650, 220.658 148, 219.103 148 C 217.443 148, 214.669 149.281, 212.388 151.099 C 210.249 152.804, 206.853 155.042, 204.841 156.073 C 202.828 157.104, 199.089 159.760, 196.530 161.974 C 193.972 164.188, 191.541 166, 191.128 166 C 190.715 166, 189.416 166.895, 188.241 167.990 C 186.929 169.212, 185.860 169.583, 185.470 168.951 C 183.335 165.496, 176.122 141.363, 176.625 139.358 C 177.030 137.744, 176.714 136.828, 175.606 136.402 C 173.060 135.425, 173.715 134.146, 177.589 132.527 C 179.564 131.702, 182.569 129.857, 184.269 128.427 C 186.916 126.200, 188.014 125.906, 191.929 126.377 C 199.016 127.230, 208.889 126.993, 211.763 125.900 L 214.365 124.911 211.873 122.419 C 208.224 118.769, 199.057 117.647, 178 118.273 C 168.375 118.559, 154.056 118.361, 146.179 117.832 C 135.392 117.109, 131.506 117.165, 130.429 118.059 C 127.943 120.122, 128.854 121.796, 133.983 124.587 C 136.724 126.079, 139.659 128.357, 140.506 129.650 C 141.514 131.187, 143.011 132, 144.836 132 C 146.630 132, 148.651 133.070, 150.500 135 C 152.081 136.650, 153.910 138, 154.565 138 C 155.219 138, 156.294 138.650, 156.954 139.444 C 157.613 140.238, 159.767 141.026, 161.742 141.194 L 165.331 141.500 172.014 161 C 175.690 171.725, 179.216 181.767, 179.849 183.315 C 181.372 187.040, 181.308 187.668, 179.330 188.427 C 177.233 189.232, 166.850 182.385, 158.206 174.496 C 152.391 169.190, 151.636 168.797, 148.284 169.341 C 143.004 170.198, 139.332 168.045, 127.995 157.447 C 122.526 152.334, 117.122 147.856, 115.987 147.496 C 114.594 147.054, 112.391 147.802, 109.212 149.798 C 106.620 151.424, 102.814 153.006, 100.752 153.314 C 97.946 153.733, 93.876 156.388, 84.543 163.887 C 66.891 178.071, 68.003 177.500, 58.042 177.500 L 49.500 177.500 33.500 187.600 C 24.700 193.155, 13.675 199.938, 9 202.674 C 0.998 207.357, 0.482 207.864, 0.190 211.324 L -0.121 215 34.086 215 L 68.293 215 77.673 211.995 C 82.832 210.343, 91.203 208.265, 96.276 207.377 C 111.984 204.629, 133.159 206.861, 145.500 212.565 C 148.667 214.028, 152.885 214.527, 165.755 214.957 L 182.011 215.500 176.755 221.686 C 173.865 225.089, 171.198 227.901, 170.830 227.936 C 170.461 227.971, 166.935 225.779, 162.994 223.063 C 155.204 217.697, 142.790 212.742, 131.043 210.311 C 125.462 209.156, 119.799 208.890, 108.543 209.255 C 90.661 209.833, 81.354 212.149, 65.337 220.007 C 48.332 228.349, 33.631 243.782, 23.906 263.500 C 16.014 279.502, 14.630 286.116, 14.600 308 C 14.578 324.102, 14.863 327.537, 16.798 334.500 C 29.448 380.033, 70.029 408.609, 117.745 405.587 C 153.256 403.337, 183.450 385.026, 197.374 357.297 C 199.674 352.716, 200.436 352.019, 203.743 351.477 C 205.809 351.138, 210.425 350.329, 214 349.680 C 217.575 349.031, 223.117 348.636, 226.316 348.802 L 232.131 349.104 237.260 359.653 C 241.854 369.101, 242.212 370.302, 240.695 371.151 C 236.121 373.710, 241.113 379.994, 246.246 378.139 C 247.486 377.691, 250.374 377.520, 252.664 377.759 C 256.235 378.132, 257.056 377.844, 258.436 375.738 C 260.144 373.131, 259.638 370, 257.508 370 C 255.803 370, 254.217 367.341, 249.037 355.797 L 244.682 346.094 248.235 342.162 C 250.189 339.999, 252.376 336.603, 253.095 334.615 C 254.565 330.548, 254.326 330.595, 265.981 332.057 C 270.617 332.638, 275.386 332.869, 276.579 332.570 C 281.073 331.442, 282.081 322.184, 277.951 319.974 C 276.950 319.438, 271.642 319, 266.155 319 L 256.178 319 253.989 314.477 L 251.799 309.954 255.847 303.227 C 262.129 292.788, 280.134 268.026, 291.153 254.672 C 292.612 252.904, 298.367 245.234, 303.942 237.628 C 312.168 226.406, 313.855 223.530, 312.891 222.368 C 311.949 221.233, 312.086 220.658, 313.552 219.586 C 315.316 218.296, 315.265 218.071, 312.451 214.689 C 309.159 210.735, 307.259 210.137, 306.284 212.750 C 305.925 213.713, 304.335 215.888, 302.752 217.583 C 301.169 219.279, 299.115 221.820, 298.187 223.229 C 297.259 224.638, 294.970 227.929, 293.101 230.542 C 290.190 234.611, 289.877 235.573, 290.920 237.244 C 291.590 238.317, 291.958 239.375, 291.737 239.596 C 291.517 239.816, 290.747 238.896, 290.027 237.551 C 288.720 235.108, 284.975 233.181, 277.585 231.147 C 273.827 230.113, 273.539 230.209, 270.402 233.535 C 267.252 236.875, 257 252.958, 257 254.560 C 257 254.990, 257.754 256.176, 258.676 257.195 C 259.962 258.615, 260.078 259.322, 259.176 260.224 C 257.276 262.124, 257.817 264.650, 260.500 266.408 C 261.875 267.309, 263 268.484, 263 269.019 C 263 270.202, 254.662 281.995, 247.214 291.346 L 241.762 298.191 237.131 297.497 C 230.361 296.482, 229.373 295.637, 227.508 289.268 C 226.579 286.095, 225.159 281.617, 224.352 279.316 C 223.442 276.721, 223.137 273.787, 223.549 271.593 C 224.135 268.466, 223.918 267.920, 221.683 266.901 C 219.497 265.905, 218.136 262.743, 211.647 243.577 C 201.263 212.910, 201.504 216.320, 209.664 215.443 C 213.424 215.039, 235.850 214.998, 259.500 215.353 L 302.500 215.997 305.273 212.249 C 311.811 203.409, 330 175.067, 330 173.719 C 330 172.908, 329.300 171.664, 328.445 170.954 C 327.159 169.887, 324.351 170.202, 312.195 172.776 C 215.824 193.184, 199.924 197.470, 198.426 203.439 C 198.059 204.901, 198.477 208.163, 199.389 210.949 C 200.275 213.659, 201 216.039, 201 216.238 C 201 216.437, 199.537 216.606, 197.750 216.614 C 192.337 216.637, 189.472 217.790, 184.392 221.988 C 180.046 225.579, 177 227.002, 177 225.441 C 177 224.716, 182.659 217.358, 186.219 213.454 L 188.997 210.408 187.510 204.700 C 186.692 201.560, 185.366 197.418, 184.563 195.495 C 182.848 191.391, 181.724 191.745, 197 191.579 C 207.512 191.465, 210.948 190.870, 237 184.656 C 298.107 170.081, 334.707 162, 339.609 162 C 342.700 162, 343.283 162.432, 344.671 165.750 C 345.534 167.813, 346.298 170.512, 346.370 171.749 C 346.441 172.986, 347.089 173.999, 347.809 173.999 C 348.529 174, 348.833 174.462, 348.484 175.027 C 348.135 175.591, 347.275 175.929, 346.573 175.777 C 345.174 175.473, 335.005 182.041, 335.002 183.250 C 334.998 184.669, 338.076 183.995, 343 181.500 C 345.713 180.125, 348.555 179, 349.315 179 C 350.526 179, 353.126 183.716, 354.248 187.947 C 354.512 188.944, 352.750 190.053, 348.566 191.521 C 335.778 196.008, 333.411 197.917, 325.034 210.500 C 323.204 213.250, 320.534 216.850, 319.103 218.500 L 316.500 221.500 319.553 218.752 C 322.468 216.127, 323.214 215.975, 336.155 215.354 C 349.128 214.732, 349.795 214.795, 351.852 216.852 C 353.033 218.033, 353.990 219.562, 353.977 220.250 C 353.964 220.938, 350.790 223.280, 346.923 225.455 C 326.430 236.983, 312.107 256.294, 305.303 281.571 C 302.920 290.425, 302.623 293.341, 302.565 308.500 C 302.509 323.204, 302.809 326.648, 304.789 334 C 313.651 366.917, 340.834 393.688, 374.500 402.653 C 383.349 405.010, 386.342 405.316, 400.500 405.316 C 414.634 405.316, 417.658 405.008, 426.429 402.670 C 446.459 397.333, 465.026 385.487, 477.019 370.395 C 484.041 361.559, 492.977 343.936, 495.980 333 C 506.452 294.876, 491.719 252.022, 459.897 228.043 C 450.680 221.098, 445.731 218.414, 435 214.541 C 418.823 208.702, 398.279 207.292, 382.243 210.919 C 377.702 211.946, 373.757 212.416, 373.477 211.962 C 372.740 210.770, 373.620 210.423, 382.500 208.407 C 399.353 204.582, 420.018 206.453, 437.770 213.410 C 443.658 215.717, 443.783 215.723, 478.088 215.112 L 512.500 214.500 512.805 210.838 C 513.046 207.950, 512.624 206.830, 510.805 205.536 C 501.351 198.808, 475.621 182.890, 466.746 178.279 C 456.244 172.822, 455.766 172.424, 448.950 163.434 C 445.098 158.354, 439.371 152.020, 436.223 149.360 C 433.075 146.700, 427.575 141.452, 424 137.698 L 417.500 130.872 412.618 137.532 C 408.311 143.408, 388.646 161.512, 383.689 164.166 C 381.949 165.098, 381.947 165.006, 383.632 161.818 C 384.861 159.493, 385.403 156.107, 385.443 150.500 C 385.480 145.248, 385.929 142.225, 386.750 141.700 C 388.995 140.264, 388.077 138.439, 383.477 135.197 C 375.578 129.629, 375.013 124.506, 381.631 118.430 C 385.541 114.841, 386.161 113.776, 385.612 111.589 C 384.680 107.878, 382.503 108.260, 371.458 114.073 M 173 124.981 C 169.060 125.605, 154.879 131.994, 157.500 131.963 C 160.329 131.930, 167.543 129.739, 168.172 128.722 C 168.670 127.916, 169.096 128.087, 169.553 129.278 C 170.516 131.787, 174.622 131.412, 179.870 128.336 C 183.834 126.013, 184.165 125.574, 182.458 124.906 C 180.171 124.012, 179.055 124.021, 173 124.981 M 152 133.893 C 152 134.384, 152.712 135.059, 153.582 135.393 C 156.028 136.332, 156.351 136.128, 155 134.500 C 153.620 132.838, 152 132.510, 152 133.893 M 368 139.654 C 368 141.364, 370.444 143.822, 372.500 144.177 C 373.600 144.368, 375.386 146.174, 376.470 148.191 C 378.403 151.789, 378.406 152.021, 376.640 160.516 C 375.651 165.278, 375.062 169.395, 375.332 169.665 C 376.274 170.607, 381.074 162.458, 382.560 157.393 C 384.581 150.507, 383.526 148.135, 376.857 144.572 C 373.911 142.997, 370.712 141.030, 369.750 140.199 C 368.788 139.369, 368 139.124, 368 139.654 M 365.500 143 C 365.840 143.550, 366.316 144, 366.559 144 C 366.802 144, 367 143.550, 367 143 C 367 142.450, 366.523 142, 365.941 142 C 365.359 142, 365.160 142.450, 365.500 143 M 346.201 150.530 L 340.901 153.004 343.526 156.445 C 344.969 158.337, 346.950 161.994, 347.929 164.572 L 349.708 169.259 353.909 165.463 C 357.989 161.777, 362.166 155.613, 363.396 151.464 C 363.833 149.989, 363.517 149.386, 362.249 149.275 C 361.287 149.191, 358.475 148.882, 356 148.588 C 352.523 148.176, 350.296 148.617, 346.201 150.530 M 368.588 151.382 C 367.714 156.040, 363.219 161.930, 356.584 167.113 C 351.238 171.287, 349.975 173.248, 351.874 174.422 C 353.048 175.147, 363.904 168.051, 369.470 162.921 C 375.119 157.714, 376.501 152.634, 373.033 149.826 C 369.909 147.296, 369.316 147.504, 368.588 151.382 M 364.282 153.250 C 363.283 157.006, 363.317 157.274, 364.576 155.559 C 365.779 153.919, 366.627 149, 365.707 149 C 365.545 149, 364.904 150.912, 364.282 153.250 M 372.549 163.920 C 372.191 164.499, 367.480 167.886, 362.080 171.447 C 353.266 177.259, 352.312 178.181, 352.748 180.460 C 353.406 183.905, 355.459 183.693, 362.559 179.446 C 369.492 175.299, 371.510 172.972, 372.890 167.534 C 373.904 163.539, 373.756 161.968, 372.549 163.920 M 352 197.869 C 347.558 199.280, 346.562 199.990, 346.823 201.558 C 347 202.626, 350.263 209.156, 354.073 216.068 C 357.883 222.980, 361 229.068, 361 229.595 C 361 230.123, 361.700 231.554, 362.555 232.775 C 364.025 234.873, 364.271 234.911, 367.066 233.466 C 370.409 231.737, 370.453 232.698, 366.318 217.033 C 363.547 206.536, 360.709 200.209, 358.367 199.311 C 357.518 198.985, 355.199 199.217, 353.213 199.827 C 351.227 200.436, 349.406 200.739, 349.166 200.500 C 348.927 200.260, 350.816 199.506, 353.365 198.825 C 355.914 198.143, 358 197.229, 358 196.793 C 358 196.357, 357.887 196.027, 357.750 196.061 C 357.613 196.095, 355.025 196.908, 352 197.869 M 368.100 207.191 C 368.155 208.461, 368.560 210.625, 369 212 C 369.684 214.135, 369.815 213.888, 369.900 210.309 C 369.955 208.004, 369.550 205.840, 369 205.500 C 368.435 205.151, 368.043 205.887, 368.100 207.191 M 0.252 211.500 C 0.263 213.700, 0.468 214.482, 0.707 213.238 C 0.946 211.994, 0.937 210.194, 0.687 209.238 C 0.437 208.282, 0.241 209.300, 0.252 211.500 M 308.500 219 C 308.840 219.550, 309.316 220, 309.559 220 C 309.802 220, 310 219.550, 310 219 C 310 218.450, 309.523 218, 308.941 218 C 308.359 218, 308.160 218.450, 308.500 219 M 302 221.362 C 302 221.562, 303.411 223.474, 305.135 225.612 C 308.510 229.797, 308.609 229.401, 305.476 224.256 C 303.813 221.526, 302 220.017, 302 221.362 M 183.195 228.039 L 176.890 234.067 182.282 240.284 C 195.830 255.903, 202.358 267.332, 206.921 283.426 C 208.625 289.436, 210.202 294.536, 210.426 294.760 C 211.170 295.503, 215 291.027, 215 289.413 C 215 288.540, 213.650 287.317, 212 286.694 C 208.605 285.412, 208.245 284.273, 210.674 282.497 C 212.201 281.380, 211.620 279.051, 204.036 255.886 C 199.464 241.924, 195.074 228.588, 194.279 226.250 C 193.352 223.522, 192.238 222.002, 191.167 222.005 C 190.250 222.008, 186.663 224.723, 183.195 228.039 M 171.061 232.296 L 166.698 237.500 171.551 232.785 C 174.220 230.192, 176.183 227.850, 175.914 227.581 C 175.645 227.311, 173.461 229.433, 171.061 232.296 M 298 228.393 C 298 229.159, 298.685 230.049, 299.523 230.371 C 300.766 230.847, 300.851 230.591, 299.988 228.977 C 298.747 226.659, 298 226.440, 298 228.393 M 102 230.828 L 98.500 231.509 98.774 237.004 C 99.702 255.612, 101.818 284.151, 102.305 284.639 C 102.622 284.956, 106.006 284.901, 109.825 284.518 L 116.767 283.820 117.373 280.160 C 117.706 278.147, 117.999 272.450, 118.024 267.500 C 118.050 262.550, 118.488 252.446, 118.998 245.046 C 119.508 237.647, 119.734 231.400, 119.499 231.165 C 118.721 230.388, 105.564 230.134, 102 230.828 M 392.705 230.664 C 390.665 231.013, 390.043 231.595, 390.402 232.821 C 391.053 235.046, 392.747 254.611, 393.541 269.084 C 393.891 275.455, 394.474 281.124, 394.838 281.682 C 395.202 282.239, 398.497 282.968, 402.161 283.302 C 407.782 283.813, 408.920 283.651, 409.453 282.261 C 410.359 279.901, 413.289 231.956, 412.572 231.238 C 411.810 230.477, 396.410 230.032, 392.705 230.664 M 121.647 236.556 C 121.288 239.176, 120.748 249.911, 120.446 260.410 C 119.826 282.018, 119.146 281.870, 127.767 262 C 130.511 255.675, 134.237 247.423, 136.046 243.663 C 138.770 238.002, 139.092 236.669, 137.918 235.916 C 136.159 234.788, 130.664 233.175, 125.900 232.387 L 122.300 231.792 121.647 236.556 M 380.734 233.417 C 378.112 234.122, 375.721 234.946, 375.419 235.248 C 374.887 235.779, 383.192 256.816, 388.349 268 L 390.885 273.500 390.932 267 C 390.982 260.090, 389.324 238.020, 388.471 234.250 C 387.894 231.698, 387.345 231.639, 380.734 233.417 M 414.088 252.250 C 413.424 263.387, 412.708 273.352, 412.496 274.394 C 412.285 275.436, 412.484 275.886, 412.938 275.394 C 414.091 274.147, 433 238.901, 433 238 C 433 237.311, 418.113 232, 416.183 232 C 415.695 232, 414.752 241.113, 414.088 252.250 M 85.500 235.314 C 82.200 236.521, 79.500 237.963, 79.500 238.519 C 79.500 239.863, 98.325 276.008, 98.786 275.548 C 99.174 275.160, 97.334 246.839, 96.363 238.250 C 95.663 232.061, 94.932 231.863, 85.500 235.314 M 294.500 234 C 294.160 234.550, 294.359 235, 294.941 235 C 295.523 235, 296 234.550, 296 234 C 296 233.450, 295.802 233, 295.559 233 C 295.316 233, 294.840 233.450, 294.500 234 M 135.366 251.219 C 132.140 258.524, 127.449 268.663, 124.942 273.750 C 122.435 278.837, 120.746 283, 121.188 283 C 121.630 283, 130.133 275.026, 140.084 265.280 L 158.176 247.561 155.875 245.698 C 152.840 243.240, 146.044 239.369, 143.366 238.573 C 141.437 238, 140.669 239.213, 135.366 251.219 M 162.453 242.250 L 158.500 246.500 162.750 242.547 C 165.088 240.373, 167 238.460, 167 238.297 C 167 237.540, 166.129 238.298, 162.453 242.250 M 71.451 241.934 C 68.728 243.493, 65.601 245.766, 64.503 246.985 L 62.506 249.203 80.503 266.517 C 90.401 276.041, 98.652 283.680, 98.838 283.495 C 99.024 283.309, 94.052 273.244, 87.789 261.128 L 76.403 239.099 71.451 241.934 M 286.497 240.004 C 286.156 240.557, 286.907 242.919, 288.167 245.254 C 291.083 250.658, 290.910 250.424, 291.523 249.810 C 291.811 249.522, 290.938 247.335, 289.584 244.950 C 288.229 242.565, 287.345 240.251, 287.619 239.807 C 287.894 239.363, 287.893 239, 287.618 239 C 287.343 239, 286.839 239.452, 286.497 240.004 M 297 240 C 297 240.550, 297.477 241, 298.059 241 C 298.641 241, 298.840 240.550, 298.500 240 C 298.160 239.450, 297.684 239, 297.441 239 C 297.198 239, 297 239.450, 297 240 M 430.460 248.756 C 427.688 254.115, 422.367 264.226, 418.635 271.225 C 412.152 283.385, 411.420 286, 414.499 286 C 415.259 286, 421.934 279.137, 429.332 270.750 C 436.730 262.363, 444.182 254.178, 445.892 252.563 C 447.601 250.948, 449 249.025, 449 248.291 C 449 247.128, 437.689 238.989, 436.095 239.006 C 435.768 239.010, 433.232 243.397, 430.460 248.756 M 294 243 C 294.589 244.100, 295.295 245, 295.570 245 C 295.845 245, 295.589 244.100, 295 243 C 294.411 241.900, 293.705 241, 293.430 241 C 293.155 241, 293.411 241.900, 294 243 M 358 244.113 C 350.197 248.806, 350.085 248.094, 360.424 259.544 C 370.055 270.211, 378 281.128, 378 283.697 C 378 284.505, 378.563 284.967, 379.250 284.723 C 381.273 284.005, 380.452 281.190, 373.060 263.502 C 366.135 246.931, 363.648 241.996, 362.227 242.004 C 361.827 242.006, 359.925 242.955, 358 244.113 M 265.112 246.180 C 263.968 249.210, 265.380 251.806, 268.614 252.618 C 270.325 253.047, 271.704 252.725, 272.788 251.641 C 274.280 250.149, 274.246 249.805, 272.353 247.261 C 269.637 243.610, 266.271 243.107, 265.112 246.180 M 283 249 C 283 251.064, 283.226 251.493, 284.174 251.225 C 284.710 251.074, 284.895 251.361, 284.585 251.862 C 284.276 252.363, 284.692 253.329, 285.511 254.009 C 287.335 255.523, 287.468 254.122, 285.839 250.547 C 284.684 248.012, 283 247.094, 283 249 M 442.500 260.291 C 437.550 265.772, 429.601 274.621, 424.837 279.954 L 416.173 289.650 418.837 293.818 C 420.301 296.110, 421.972 297.989, 422.549 297.993 C 425.523 298.013, 463.997 267.388, 463.998 265 C 463.999 263.121, 455.662 252.403, 453.272 251.210 C 451.825 250.487, 449.852 252.150, 442.500 260.291 M 55.919 255.285 C 53.950 257.603, 51.572 260.682, 50.634 262.128 L 48.930 264.755 54.191 269.128 C 57.084 271.532, 65.018 278.349, 71.823 284.274 C 78.627 290.200, 85.448 295.698, 86.982 296.491 C 89.731 297.912, 89.823 297.862, 93.635 292.812 L 97.500 287.692 79.201 269.596 C 69.136 259.643, 60.586 251.403, 60.201 251.285 C 59.815 251.167, 57.889 252.967, 55.919 255.285 M 142.500 270.041 C 113.309 298.831, 108.888 303, 107.550 303 C 105.501 303, 103 306.479, 103 309.329 C 103 310.798, 103.477 312, 104.059 312 C 104.641 312, 104.869 311.597, 104.564 311.104 C 104.260 310.611, 104.880 309.149, 105.943 307.854 C 107.515 305.938, 108.212 305.706, 109.687 306.607 C 111.878 307.945, 112.639 310.987, 111.031 311.981 C 110.390 312.377, 113.158 312.984, 117.183 313.329 C 121.207 313.674, 134.386 315.071, 146.469 316.433 C 163.366 318.338, 168.614 318.632, 169.204 317.705 C 170.075 316.333, 170.255 314, 169.489 314 C 169.208 314, 164.821 313.349, 159.739 312.554 C 154.658 311.759, 144.792 310.638, 137.815 310.064 C 124.571 308.974, 114 306.059, 114 303.495 C 114 302.747, 116.569 299.517, 119.708 296.317 C 122.847 293.118, 125.322 290.163, 125.208 289.750 C 124.888 288.596, 126.461 288.861, 127.783 290.183 C 128.434 290.834, 129.299 291.035, 129.704 290.629 C 130.110 290.223, 129.793 289.490, 129 289 C 128.207 288.510, 127.837 287.830, 128.178 287.489 C 128.518 287.148, 130.170 288.211, 131.848 289.851 C 135.687 293.604, 138.994 294.762, 140.122 292.747 C 140.578 291.932, 147.937 285.074, 156.475 277.506 C 165.014 269.938, 172 263.405, 172 262.988 C 172 261.904, 162.881 250.970, 162.128 251.151 C 161.782 251.234, 152.950 259.734, 142.500 270.041 M 342.559 257.587 C 337.327 264.010, 337.227 263.605, 346 271.523 C 349.025 274.253, 354.529 279.286, 358.231 282.708 C 361.934 286.130, 366.116 289.685, 367.526 290.609 C 370.011 292.237, 370.180 292.202, 373.045 289.457 C 374.670 287.900, 376 285.840, 376 284.879 C 376 282.067, 350.708 252, 348.342 252 C 347.664 252, 345.062 254.514, 342.559 257.587 M 275.500 255 C 274.505 256.100, 274.102 257, 274.604 257 C 275.107 257, 276.081 256.100, 276.768 255 C 277.455 253.900, 277.858 253, 277.663 253 C 277.469 253, 276.495 253.900, 275.500 255 M 279 254.854 C 279 256.229, 282.966 260.367, 283.639 259.695 C 283.898 259.435, 282.961 257.982, 281.555 256.465 C 280.150 254.949, 279 254.224, 279 254.854 M 267.872 265.750 C 266.629 267.336, 266.664 267.371, 268.250 266.128 C 269.212 265.373, 270 264.585, 270 264.378 C 270 263.555, 269.179 264.084, 267.872 265.750 M 165.468 272.765 C 161.051 277.019, 153.626 283.934, 148.968 288.130 C 136.012 299.805, 137.630 299.659, 167.500 286.463 C 175.200 283.061, 181.622 279.652, 181.770 278.889 C 182.044 277.480, 175.107 264.987, 174.066 265.015 C 173.755 265.023, 169.886 268.511, 165.468 272.765 M 277.500 266 C 277.840 266.550, 278.316 267, 278.559 267 C 278.802 267, 279 266.550, 279 266 C 279 265.450, 278.523 265, 277.941 265 C 277.359 265, 277.160 265.450, 277.500 266 M 46.210 268.711 C 43.759 272.161, 41 278.658, 41 280.979 C 41 282.529, 54.758 287.595, 80.880 295.663 C 81.771 295.938, 81.159 295.114, 79.521 293.832 C 71.678 287.693, 57.619 275.501, 53.160 270.971 L 48.191 265.923 46.210 268.711 M 270.022 267.063 C 270.010 267.923, 271.408 269.948, 273.130 271.563 C 276.445 274.675, 275.863 272.750, 272.051 268 C 270.619 266.216, 270.038 265.947, 270.022 267.063 M 334.453 268.431 C 331.913 272.307, 328.958 280.856, 329.946 281.467 C 330.992 282.113, 354.966 291.302, 362.824 294.069 C 365.752 295.100, 368.002 295.587, 367.824 295.151 C 367.646 294.716, 361.425 288.898, 354 282.222 C 346.575 275.545, 339.934 269.164, 339.242 268.042 C 337.593 265.368, 336.397 265.465, 334.453 268.431 M 459.233 273.053 C 455.786 276.314, 448.136 282.638, 442.233 287.107 C 436.330 291.575, 432.400 294.976, 433.500 294.665 C 438.712 293.188, 472.546 282.618, 472.881 282.363 C 473.504 281.886, 469.074 271.678, 467.217 269.312 L 465.500 267.124 459.233 273.053 M 264 272.820 C 264 273.270, 265.031 274.536, 266.292 275.632 C 270.569 279.351, 271.511 279.410, 268.500 275.771 C 265.557 272.213, 264 271.192, 264 272.820 M 261 279.759 C 261 280.177, 262.012 281.141, 263.250 281.901 C 265.492 283.278, 265.493 283.276, 263.595 281.142 C 261.557 278.850, 261 278.554, 261 279.759 M 176.500 284.703 C 170.277 287.952, 151.614 295.898, 147.250 297.157 C 145.463 297.672, 144 298.549, 144 299.106 C 144 299.663, 143.550 299.840, 143 299.500 C 142.450 299.160, 142 299.359, 142 299.941 C 142 300.523, 141.523 301, 140.941 301 C 140.359 301, 140.157 300.555, 140.493 300.011 C 140.849 299.436, 140.428 299.282, 139.485 299.644 C 138.434 300.047, 138.208 300.608, 138.840 301.240 C 139.471 301.871, 141.806 301.468, 145.488 300.090 C 150.740 298.125, 152.491 298.008, 168.972 298.520 L 186.782 299.073 185.397 291.786 C 183.234 280.399, 183.833 280.875, 176.500 284.703 M 326.568 289.083 C 325.706 291.987, 325.004 295.744, 325.010 297.432 L 325.020 300.500 339.260 300.764 C 347.092 300.909, 356.808 301.390, 360.851 301.833 C 366.694 302.474, 368.308 302.360, 368.724 301.276 C 369.012 300.527, 368.997 299.664, 368.692 299.359 C 368.172 298.839, 333.479 285.406, 329.818 284.307 C 328.506 283.913, 327.791 284.963, 326.568 289.083 M 38.081 288.741 C 37.531 290.809, 36.780 294.413, 36.413 296.750 L 35.744 301 46.213 301 C 51.971 301, 63.616 301.283, 72.091 301.628 C 84.057 302.116, 87.249 301.988, 86.378 301.055 C 85.406 300.017, 49.227 287.529, 41.758 285.654 C 39.314 285.041, 38.995 285.309, 38.081 288.741 M 451.500 291.544 C 425.476 299.827, 424.011 300.348, 424.005 301.327 C 424.003 301.781, 433.113 302.123, 444.250 302.085 C 455.388 302.047, 467.200 302.410, 470.500 302.891 C 473.800 303.372, 476.772 303.607, 477.104 303.414 C 477.836 302.988, 476.344 292.753, 474.892 288.250 C 474.316 286.462, 473.317 285.040, 472.672 285.090 C 472.028 285.139, 462.500 288.043, 451.500 291.544 M 258 286.878 C 258 287.360, 258.675 288.315, 259.500 289 C 261.128 290.351, 261.332 290.028, 260.393 287.582 C 259.750 285.907, 258 285.392, 258 286.878 M 397 287.433 C 397 287.789, 397.957 289.956, 399.127 292.249 L 401.254 296.419 403.622 293.459 C 406.782 289.511, 406.632 288, 403.082 288 C 401.477 288, 399.452 287.727, 398.582 287.393 C 397.712 287.059, 397 287.077, 397 287.433 M 408.414 293.490 C 406.247 296.798, 407.141 297.591, 413.876 298.339 C 419.173 298.927, 419.226 298.907, 417.471 296.968 C 416.491 295.886, 415.135 295, 414.456 295 C 413.777 295, 413.285 294.230, 413.361 293.288 C 413.588 290.494, 410.289 290.629, 408.414 293.490 M 381.743 292.590 C 381.145 293.188, 385.307 301.701, 387.052 303.450 C 388.666 305.068, 388.135 301.480, 386.036 296.583 C 384.177 292.247, 383.094 291.240, 381.743 292.590 M 213.500 296.837 C 209.311 299.392, 203.387 306.296, 204.940 306.813 C 205.618 307.039, 207.597 305.926, 209.337 304.340 C 213.521 300.525, 218.651 297, 220.019 297 C 220.623 297, 220.840 296.550, 220.500 296 C 219.560 294.479, 216.831 294.806, 213.500 296.837 M 380 297.500 C 381.292 298.875, 382.799 300, 383.349 300 C 383.899 300, 383.292 298.875, 382 297.500 C 380.708 296.125, 379.201 295, 378.651 295 C 378.101 295, 378.708 296.125, 380 297.500 M 214.831 301.893 C 212.342 303.471, 210.026 305.491, 209.684 306.381 C 208.798 308.690, 210.520 308.381, 213.205 305.750 C 214.467 304.512, 216.625 302.762, 218 301.859 C 219.375 300.957, 220.243 299.950, 219.928 299.621 C 219.613 299.292, 217.320 300.314, 214.831 301.893 M 132.500 301 C 132.160 301.550, 132.359 302, 132.941 302 C 133.523 302, 134 301.550, 134 301 C 134 300.450, 133.802 300, 133.559 300 C 133.316 300, 132.840 300.450, 132.500 301 M 193 301 C 193 301.550, 193.423 302, 193.941 302 C 194.459 302, 195.160 301.550, 195.500 301 C 195.840 300.450, 195.416 300, 194.559 300 C 193.702 300, 193 300.450, 193 301 M 197.397 300.833 C 197.884 301.621, 204 301.208, 204 300.387 C 204 300.174, 202.398 300, 200.441 300 C 198.484 300, 197.114 300.375, 197.397 300.833 M 146.613 302.043 C 141.782 302.864, 139.052 304.385, 140.253 305.586 C 140.850 306.183, 146.587 307.053, 172.500 310.478 C 179.100 311.350, 185.850 312.273, 187.500 312.529 C 189.192 312.792, 189.846 312.669, 189 312.247 C 187.966 311.732, 187.500 309.946, 187.500 306.500 L 187.500 301.500 169.500 301.357 C 159.600 301.278, 149.301 301.587, 146.613 302.043 M 411 302 C 412.977 303.278, 419 303.278, 419 302 C 419 301.450, 416.863 301.007, 414.250 301.015 C 410.815 301.026, 409.915 301.299, 411 302 M 324.750 303.573 C 323.725 304.612, 323.827 318.179, 324.872 319.828 C 325.560 320.913, 328.256 320.959, 339.607 320.080 C 365.248 318.095, 375.846 316.762, 375.392 315.578 C 375.156 314.964, 377.902 313.181, 381.493 311.616 C 385.085 310.052, 388.281 308.354, 388.596 307.844 C 388.930 307.304, 386.523 306.999, 382.835 307.114 C 379.351 307.223, 371.325 306.604, 365 305.739 C 351.327 303.868, 325.812 302.495, 324.750 303.573 M 36 310.918 C 36 320.610, 36.248 321.002, 42.357 320.987 C 50.725 320.965, 80.195 318.163, 84.179 317.010 C 87.822 315.956, 87.857 315.895, 87.857 310.625 L 87.857 305.305 73.679 304.656 C 65.880 304.299, 54.213 304.006, 47.750 304.004 L 36 304 36 310.918 M 233.800 306.200 C 234.733 307.133, 235.267 307.133, 236.200 306.200 C 237.133 305.267, 236.867 305, 235 305 C 233.133 305, 232.867 305.267, 233.800 306.200 M 424.445 305.765 C 423.863 306.171, 423.564 308.525, 423.777 311.015 L 424.164 315.531 431.332 317.278 C 440.128 319.421, 464.825 322.963, 471.125 322.984 C 475.510 322.999, 475.782 322.838, 476.375 319.875 C 476.719 318.156, 477 314.106, 477 310.875 L 477 305 451.250 305.015 C 437.087 305.024, 425.025 305.361, 424.445 305.765 M 410 307.360 C 410 309.883, 414.780 314.738, 417.143 314.615 C 419.464 314.493, 420.411 311.251, 418.846 308.785 C 418.240 307.830, 418.027 307.934, 418.015 309.191 C 418.007 310.121, 417.576 311.144, 417.059 311.464 C 416.541 311.784, 416.203 310.798, 416.309 309.273 C 416.477 306.828, 416.116 306.463, 413.250 306.187 C 410.900 305.960, 410 306.285, 410 307.360 M 384.764 311.876 C 382.160 313.319, 380.022 314.837, 380.014 315.250 C 380.006 315.663, 382.700 316, 386 316 C 391.821 316, 392.973 315.424, 391.097 313.450 C 390.600 312.928, 390.038 311.769, 389.847 310.876 C 389.548 309.476, 388.846 309.614, 384.764 311.876 M 164.813 311.683 C 165.534 311.972, 166.397 311.936, 166.729 311.604 C 167.061 311.272, 166.471 311.036, 165.417 311.079 C 164.252 311.127, 164.015 311.364, 164.813 311.683 M 244.700 315.037 C 242.362 317.768, 242.503 318, 246.500 318 C 250.407 318, 250.870 317.097, 248.200 314.681 C 246.530 313.169, 246.278 313.195, 244.700 315.037 M 410.813 314.683 C 411.534 314.972, 412.397 314.936, 412.729 314.604 C 413.061 314.272, 412.471 314.036, 411.417 314.079 C 410.252 314.127, 410.015 314.364, 410.813 314.683 M 209.070 321.250 C 209.125 324.542, 209.334 325.049, 210 323.500 C 211.198 320.711, 211.198 317, 210 317 C 209.450 317, 209.032 318.913, 209.070 321.250 M 384.182 317.992 L 379.864 318.500 383.182 321.640 C 388.045 326.241, 389.978 326.501, 394.038 323.098 C 395.942 321.501, 397.180 319.869, 396.790 319.471 C 395.599 318.257, 388.753 317.453, 384.182 317.992 M 407.574 318.766 C 406.915 320.843, 407.735 324, 408.933 324 C 409.328 324, 410.721 322.862, 412.028 321.471 C 413.448 319.959, 415.027 319.178, 415.952 319.530 C 416.973 319.918, 417.159 319.784, 416.500 319.137 C 415.950 318.597, 413.856 317.854, 411.847 317.485 C 408.768 316.919, 408.096 317.121, 407.574 318.766 M 85 319.457 C 81.160 321.614, 57.383 332.357, 49.262 335.605 C 45.282 337.197, 42.019 338.850, 42.012 339.279 C 42.006 339.707, 43.374 342.779, 45.053 346.105 L 48.106 352.153 55.358 345.265 C 65.475 335.654, 83.762 321.098, 86.618 320.381 C 87.928 320.052, 89 319.382, 89 318.892 C 89 317.661, 87.929 317.812, 85 319.457 M 145.500 319.092 C 147.150 319.598, 152.550 320.902, 157.500 321.990 C 162.450 323.078, 169.875 324.867, 174 325.967 C 182.826 328.319, 185 328.463, 185 326.696 C 185 325.834, 180.672 324.466, 172.250 322.665 C 156.015 319.194, 137.974 316.784, 145.500 319.092 M 373.500 319.516 C 370.649 320.835, 360.458 325.158, 340.500 333.516 C 335.550 335.589, 331.147 337.596, 330.715 337.978 C 329.992 338.616, 332.676 345.760, 334.783 348.805 C 335.460 349.783, 339.669 346.922, 351.593 337.382 C 360.342 330.382, 369.637 323.315, 372.250 321.678 C 378.344 317.859, 378.805 317.062, 373.500 319.516 M 152 335.838 C 161.625 345.220, 170.001 352.919, 170.614 352.948 C 172.636 353.043, 177.102 347.711, 176.796 345.568 C 176.422 342.954, 142.607 320.242, 137.798 319.375 C 134.871 318.847, 136.470 320.700, 152 335.838 M 444.456 335.305 C 454.309 344.487, 462.730 352, 463.169 352 C 464.147 352, 469.017 342.563, 468.957 340.783 C 468.919 339.653, 444.889 327.137, 434.719 322.951 C 432.640 322.095, 431.253 321.081, 431.636 320.697 C 432.020 320.314, 431.845 320, 431.248 320 C 430.652 320, 429.348 319.687, 428.352 319.305 C 427.356 318.923, 434.603 326.123, 444.456 335.305 M 226.011 321.487 C 224.751 323.006, 225.259 326, 226.777 326 C 227.240 326, 228.474 325.374, 229.521 324.608 C 231.138 323.426, 231.224 322.975, 230.090 321.608 C 228.434 319.613, 227.587 319.588, 226.011 321.487 M 360.917 320.412 C 360.688 320.639, 352.569 321.381, 342.875 322.060 L 325.249 323.296 326.514 328.737 C 328.117 335.632, 329.178 336.764, 332.199 334.802 C 333.464 333.979, 340.575 330.692, 348 327.496 C 362.653 321.189, 362.566 321.233, 361.833 320.500 C 361.558 320.225, 361.146 320.186, 360.917 320.412 M 397.615 323.439 C 394.958 326.921, 395.404 328.566, 398.759 327.657 C 399.717 327.398, 401.803 326.894, 403.395 326.538 C 405.568 326.051, 406.004 325.604, 405.145 324.745 C 404.515 324.115, 404 322.790, 404 321.800 C 404 318.812, 400.448 319.723, 397.615 323.439 M 416.504 324.560 L 412.767 329.120 424.237 340.810 C 430.545 347.240, 438.570 355.650, 442.069 359.500 C 445.569 363.350, 448.808 366.658, 449.267 366.851 C 450.251 367.263, 461 356.741, 461 355.365 C 461 354.849, 454.632 348.593, 446.849 341.463 C 427.774 323.989, 423.070 320, 421.539 320 C 420.825 320, 418.559 322.052, 416.504 324.560 M 61.500 322.033 C 57.650 322.428, 50.532 322.807, 45.683 322.876 C 37.796 322.987, 36.917 323.185, 37.358 324.750 C 37.629 325.712, 38.163 328.075, 38.544 330 C 40.046 337.587, 39.390 337.609, 57.240 329.358 C 66.173 325.229, 73.674 321.660, 73.908 321.426 C 74.428 320.905, 70.720 321.087, 61.500 322.033 M 99.053 321.968 C 97.276 323.065, 99.098 323.896, 101.427 323.050 C 103.001 322.478, 103.076 322.243, 101.836 321.767 C 101.002 321.447, 99.749 321.537, 99.053 321.968 M 374.973 322.725 C 373.613 323.674, 364.934 330.424, 355.687 337.725 C 346.440 345.026, 338.441 351, 337.911 351 C 336.298 351, 339.534 356.222, 344.355 361.399 L 348.916 366.297 359.028 356.899 C 364.589 351.729, 373.616 343.589, 379.087 338.810 L 389.034 330.120 384.637 327.095 C 382.219 325.431, 379.976 323.379, 379.652 322.535 C 378.896 320.566, 378.016 320.602, 374.973 322.725 M 453 329.353 L 470.500 337.889 472.173 334.194 C 473.093 332.162, 474.155 329.262, 474.532 327.750 L 475.217 325 469.358 324.994 C 466.136 324.991, 459.225 324.341, 454 323.551 C 448.775 322.761, 442.475 321.822, 440 321.466 C 436.315 320.935, 438.669 322.363, 453 329.353 M 81.244 326.874 C 77.802 329.545, 69.383 336.590, 62.534 342.530 L 50.081 353.329 51.767 356.182 C 52.694 357.752, 55.136 360.679, 57.193 362.688 L 60.933 366.341 72.720 354.920 C 79.203 348.639, 87.318 341.037, 90.754 338.028 C 96.590 332.915, 98.108 330.633, 96.209 329.833 C 95.773 329.650, 94.145 327.813, 92.590 325.750 C 91.035 323.688, 89.254 322.004, 88.631 322.009 C 88.009 322.014, 84.685 324.203, 81.244 326.874 M 128.703 326.102 C 126.169 328.791, 125.095 330.724, 125.473 331.915 C 125.784 332.896, 130.962 338.285, 136.979 343.890 L 147.918 354.082 156.959 353.917 C 161.932 353.826, 165.998 353.470, 165.996 353.126 C 165.992 352.422, 134.303 322.619, 133.205 322.287 C 132.817 322.169, 130.792 323.886, 128.703 326.102 M 152.133 323.487 C 154.695 325.909, 178.140 342, 179.107 342 C 180.133 342, 184 333.724, 184 331.530 C 184 330.713, 181.483 329.753, 177.250 328.957 C 173.537 328.258, 166.060 326.451, 160.633 324.941 C 154.754 323.305, 151.319 322.717, 152.133 323.487 M 214.500 330.354 C 213.400 330.984, 212.356 331.569, 212.181 331.653 C 211.386 332.033, 214.617 336, 215.721 336 C 217.246 336, 218.587 331.166, 217.377 330.030 C 216.895 329.578, 215.600 329.723, 214.500 330.354 M 238 329.516 C 238 331.024, 240.542 335, 241.506 335 C 242.778 335, 246.593 331.221, 245.911 330.635 C 245.287 330.101, 238 329.069, 238 329.516 M 400 330.923 L 393.500 331.500 392.873 342 C 392.527 347.775, 392.190 359.813, 392.123 368.750 L 392 385 401.632 385 L 411.263 385 410.611 380.750 C 410.253 378.413, 409.722 367.500, 409.431 356.500 C 408.881 335.667, 408.392 329.882, 407.205 330.173 C 406.817 330.268, 403.575 330.605, 400 330.923 M 415.745 340.500 C 418.465 346, 423.297 356.238, 426.482 363.250 C 430.433 371.951, 432.784 375.997, 433.886 375.991 C 436.056 375.978, 446 370.216, 446 368.971 C 446 367.853, 439.966 361.126, 422.703 343 L 410.799 330.500 415.745 340.500 M 98 333.059 C 98 333.641, 98.450 333.840, 99 333.500 C 99.550 333.160, 100 332.684, 100 332.441 C 100 332.198, 99.550 332, 99 332 C 98.450 332, 98 332.477, 98 333.059 M 387.300 334.336 C 386.319 335.974, 362.332 358.057, 355.655 363.469 L 350.810 367.397 354.155 370.154 C 355.995 371.671, 359.657 374.095, 362.294 375.542 C 366.138 377.651, 367.376 377.933, 368.544 376.964 C 369.345 376.299, 370 375.381, 370 374.924 C 370 374.467, 373.412 366.985, 377.583 358.297 C 385.383 342.045, 389.300 333, 388.535 333 C 388.295 333, 387.740 333.601, 387.300 334.336 M 101.069 337.128 C 98.765 340.916, 85.615 379.948, 86.384 380.717 C 87.195 381.528, 98.185 383.967, 101.106 383.984 L 103.713 384 104.276 373.250 C 104.593 367.204, 104.438 362.084, 103.920 361.550 C 102.494 360.077, 102.834 357.001, 104.494 356.364 C 105.316 356.048, 105.749 355.402, 105.455 354.928 C 105.162 354.454, 105.228 351.763, 105.601 348.950 C 105.987 346.039, 106.602 344.356, 107.028 345.045 C 108.041 346.684, 109.686 345.507, 111.625 341.759 C 113.131 338.847, 113.118 338.559, 111.426 337.322 C 108.900 335.476, 106.232 335.674, 105.689 337.750 C 105.336 339.101, 105.206 339.001, 105.116 337.309 C 104.928 333.749, 103.171 333.671, 101.069 337.128 M 91.492 341.013 C 88.196 344.345, 80.460 351.659, 74.301 357.264 C 63.844 366.780, 63.207 367.572, 64.696 369.216 C 67.258 372.047, 75.840 377.217, 76.895 376.565 C 79.998 374.647, 98.638 338.415, 97.806 335.919 C 97.629 335.387, 94.788 337.680, 91.492 341.013 M 389.064 338.750 C 388.329 340.813, 383.737 350.786, 378.860 360.913 C 373.983 371.040, 370.107 379.436, 370.246 379.571 C 371.255 380.545, 388.544 384.840, 389.076 384.248 C 389.741 383.508, 391.375 335, 390.734 335 C 390.551 335, 389.800 336.688, 389.064 338.750 M 120.601 336.837 C 119.072 339.311, 118.207 346.519, 119.214 348.401 C 119.812 349.516, 120.345 351.795, 120.400 353.465 C 120.499 356.476, 120.539 356.497, 125.500 356.151 C 128.250 355.959, 130.654 355.655, 130.842 355.476 C 131.410 354.934, 126.914 342.968, 124.789 339.366 C 122.804 336.002, 121.575 335.260, 120.601 336.837 M 202.979 342.564 C 201.777 346.174, 200.953 349.285, 201.147 349.477 C 201.341 349.669, 204.918 349.111, 209.095 348.237 L 216.691 346.647 211.367 341.324 C 208.439 338.396, 205.845 336, 205.603 336 C 205.361 336, 204.180 338.954, 202.979 342.564 M 220.667 336.667 C 219.107 338.226, 220.237 339.923, 223.567 341.022 C 227.977 342.477, 228.646 341.915, 226.465 338.587 C 224.854 336.129, 222.113 335.221, 220.667 336.667 M 410.374 348.595 C 411.029 360.980, 412.995 383.200, 413.486 383.778 C 413.616 383.930, 417.384 382.898, 421.861 381.484 C 427.195 379.799, 430 378.406, 430 377.441 C 430 376.632, 427.357 370.689, 424.126 364.235 C 420.895 357.781, 416.803 349.013, 415.033 344.752 C 410.214 333.150, 409.584 333.671, 410.374 348.595 M 128.047 340.147 C 128.073 340.341, 129.136 343.650, 130.409 347.500 L 132.725 354.500 138.530 354.805 C 143.720 355.077, 144.197 354.943, 143.028 353.534 C 141.523 351.720, 127.976 339.615, 128.047 340.147 M 188 353.938 C 188 354.454, 188.900 354.808, 190 354.725 C 191.100 354.642, 192 354.220, 192 353.787 C 192 353.354, 191.100 353, 190 353 C 188.900 353, 188 353.422, 188 353.938 M 193.750 353.662 C 194.438 353.940, 195.563 353.940, 196.250 353.662 C 196.938 353.385, 196.375 353.158, 195 353.158 C 193.625 353.158, 193.063 353.385, 193.750 353.662 M 113 355 C 113 355.550, 113.450 356, 114 356 C 114.550 356, 115 355.550, 115 355 C 115 354.450, 114.550 354, 114 354 C 113.450 354, 113 354.450, 113 355 M 177 355.031 C 177 355.564, 177.675 356, 178.500 356 C 179.325 356, 180 355.823, 180 355.607 C 180 355.391, 179.325 354.955, 178.500 354.638 C 177.675 354.322, 177 354.499, 177 355.031 M 181 354.827 C 181 355.282, 182.350 355.455, 184 355.213 C 185.650 354.971, 187 354.599, 187 354.387 C 187 354.174, 185.650 354, 184 354 C 182.350 354, 181 354.372, 181 354.827 M 158.782 355.970 L 151.064 356.500 156.584 361.358 C 162.022 366.144, 162.134 366.189, 164.162 364.358 C 165.294 363.336, 167.505 360.881, 169.074 358.901 L 171.929 355.302 169.214 355.372 C 167.721 355.410, 163.027 355.679, 158.782 355.970 M 136.780 357.684 C 135.224 358.092, 135.282 358.486, 137.394 361.832 C 138.677 363.865, 140.968 367.997, 142.484 371.014 C 144 374.031, 145.370 376.646, 145.527 376.824 C 146.494 377.915, 159 369.625, 159 367.893 C 159 367.340, 156.680 364.663, 153.844 361.944 C 148.979 357.280, 148.400 357.007, 143.594 357.116 C 140.792 357.180, 137.726 357.435, 136.780 357.684 M 89.556 359.824 C 89.211 360.910, 86.689 365.526, 83.951 370.082 C 79.095 378.162, 78.848 379.931, 82.570 379.985 C 83.591 379.999, 91.295 358.961, 90.544 358.210 C 90.345 358.012, 89.901 358.738, 89.556 359.824 M 123.705 358.698 C 121.640 359.026, 121.047 359.580, 121.434 360.821 C 121.940 362.440, 126 381.816, 126 382.610 C 126 384.083, 140.792 380.541, 142.728 378.605 C 142.974 378.359, 140.969 373.735, 138.271 368.329 C 133.536 358.840, 133.248 358.496, 129.933 358.377 C 128.045 358.310, 125.242 358.454, 123.705 358.698 M 111.830 361.732 L 107.161 362.103 106.559 369.802 C 106.227 374.036, 105.784 379.188, 105.573 381.250 L 105.190 385 113.345 384.985 C 117.830 384.976, 122.026 384.634, 122.670 384.225 C 123.546 383.668, 123.352 381.095, 121.900 373.990 C 119.435 361.925, 119.118 360.962, 117.683 361.180 C 117.032 361.279, 114.399 361.528, 111.830 361.732" stroke="none" fill="black" fill-rule="evenodd"/>
</svg>